<svg xmlns="http://www.w3.org/2000/svg" xmlns:xlink="http://www.w3.org/1999/xlink" width="847px" height="854px" viewBox="0 0 847 854" version="1.1">
<g id="surface1">
<path style="fill-rule: evenodd; fill: rgb(251, 251, 251); fill-opacity: 1; opacity: 1;" d="M 425.378906 3.308594 C 410.234375 21.171875 398.710938 56.753906 396.835938 91.4375 C 396.601562 95.75 396.117188 110.613281 395.761719 124.46875 C 395.046875 152.265625 394.410156 171.667969 394.070312 175.925781 C 393.945312 177.449219 393.554688 184.273438 393.203125 191.082031 C 392.535156 203.933594 391.335938 220.4375 390.234375 231.859375 C 384.46875 291.878906 381.136719 311.898438 372.527344 338.183594 C 367.59375 353.234375 359.726562 369.691406 352.859375 379.316406 C 341.078125 395.832031 328.683594 398.199219 232.925781 402.242188 C 196.917969 403.761719 190.128906 404.496094 184.132812 407.527344 C 167.839844 415.757812 199.488281 441.996094 236.101562 450.605469 C 244.71875 452.632812 243.273438 453.007812 250.027344 446.980469 C 265.5625 433.109375 270.457031 430.394531 274.859375 433.199219 C 277.375 434.796875 276.785156 435.695312 268.5 442.890625 C 224.5625 481.046875 195.328125 580.480469 219.257812 610.378906 C 226.917969 619.949219 237.109375 620.578125 253.640625 612.496094 C 267.503906 605.722656 268.871094 606.125 277.390625 619.492188 C 295.945312 648.585938 301.113281 654.734375 317.246094 666.875 C 322.394531 670.753906 322.621094 671.015625 321.675781 672.066406 C 319.699219 674.269531 315.546875 673.6875 310.082031 670.4375 C 305.558594 667.746094 300.183594 665.175781 299.84375 665.53125 C 298.382812 667.074219 295.066406 689.179688 294.3125 702.414062 C 292.335938 737.074219 295.917969 759.960938 303.671875 762.203125 C 311.113281 764.351562 318.484375 757.070312 324.195312 741.914062 C 326.441406 735.945312 327.015625 735.464844 329.15625 737.75 C 331.484375 740.238281 331.863281 741.742188 332.636719 751.519531 C 335.003906 781.507812 335.660156 787.777344 339.433594 816.289062 C 340.484375 824.191406 341.265625 830.734375 341.179688 830.824219 C 341.089844 830.910156 334.5625 831.445312 326.675781 832.011719 C 318.785156 832.578125 311.472656 833.144531 310.425781 833.265625 C 309.378906 833.390625 305.660156 833.785156 302.167969 834.140625 C 291.136719 835.273438 283.378906 836.609375 274.550781 838.90625 C 259.886719 842.722656 273.375 847.175781 309.789062 850.550781 C 361.15625 855.3125 506.207031 855.074219 560.503906 850.140625 C 586.28125 847.796875 601.78125 842.457031 591.796875 839.355469 C 579.347656 835.484375 561.863281 833.667969 521.117188 832 C 510.472656 831.566406 509.777344 831.449219 510.046875 830.148438 C 510.617188 827.441406 517 788.21875 519.199219 773.9375 C 522.109375 755.023438 521.980469 755.554688 524.15625 753.503906 C 537.007812 741.398438 545.582031 728.03125 553.667969 707.496094 C 559.582031 692.484375 559.25 693.011719 561.265625 695.390625 C 579.605469 717.003906 598.730469 725.25 602.660156 713.238281 C 604.230469 708.445312 599.929688 685.605469 594.027344 667.402344 C 585.992188 642.605469 577.144531 625.800781 563.460938 609.328125 C 554.617188 598.6875 551.027344 591.671875 550.269531 583.570312 L 550 580.65625 L 551.4375 580.886719 C 552.230469 581.015625 556.59375 581.328125 561.136719 581.582031 C 565.679688 581.835938 571.738281 582.226562 574.605469 582.449219 C 598.542969 584.3125 620.101562 580.824219 636.308594 572.464844 C 659.457031 560.53125 670.367188 545.121094 662.15625 535.957031 C 660.21875 533.792969 653.117188 529.609375 644.863281 525.761719 C 641.089844 524.003906 636 521.605469 633.554688 520.433594 C 627.71875 517.628906 614.578125 511.515625 606.875 508.015625 C 596.359375 503.242188 595.070312 502.625 584.851562 497.484375 C 554.707031 482.304688 536.246094 466.628906 520.964844 443.226562 C 509.359375 425.449219 496.695312 386.496094 482.582031 325.160156 C 481.5 320.464844 479.226562 310.761719 477.527344 303.597656 C 475.824219 296.433594 473.9375 288.363281 473.332031 285.664062 C 470.09375 271.21875 465.734375 252.855469 462.027344 238.050781 C 453.789062 205.140625 447.496094 176.363281 444.472656 157.777344 C 439.042969 124.386719 437.785156 114.277344 435.785156 87.960938 C 433.96875 64.0625 434.082031 21.625 436 7.5625 C 436.34375 5.03125 436.628906 2.292969 436.628906 1.480469 L 436.628906 0 L 428.183594 0 L 425.378906 3.308594 M 215.574219 416.738281 C 223.332031 417.625 234.03125 418.246094 248.59375 418.664062 C 279.863281 419.558594 302.539062 424.304688 332.660156 436.261719 C 354.417969 444.898438 388.445312 464.429688 409.054688 480.113281 C 473.144531 528.882812 491.535156 539.914062 526.597656 550.605469 C 555.648438 559.460938 570.585938 562.023438 597.980469 562.855469 C 615.53125 563.382812 615.117188 563.304688 614.804688 566.121094 C 614.457031 569.226562 614.40625 569.242188 604.269531 569.75 C 566.960938 571.625 513.164062 558.53125 479.191406 539.3125 C 470.53125 534.414062 459.921875 527.621094 450.605469 521.011719 C 438.03125 512.09375 432.691406 508.175781 425.195312 502.367188 C 416.710938 495.800781 416.132812 495.367188 402.429688 485.457031 C 363.867188 457.558594 326.09375 438.945312 290.308594 430.203125 C 275.03125 426.46875 273.113281 426.242188 252.40625 425.726562 C 214.898438 424.789062 203.660156 422.695312 205.792969 417.042969 C 206.316406 415.652344 206.078125 415.660156 215.574219 416.738281 M 363.785156 504.28125 C 383.769531 511.101562 386.660156 537.46875 368.597656 548.191406 C 347.855469 560.503906 324.1875 538.003906 334.582031 515.851562 C 339.269531 505.859375 352.753906 500.519531 363.785156 504.28125 M 352.746094 513.410156 C 337.71875 517.496094 339.007812 539.386719 354.425781 541.886719 C 363.785156 543.410156 371.582031 536.054688 370.84375 526.402344 C 370.105469 516.777344 361.9375 510.910156 352.746094 513.410156 M 415.453125 777.34375 C 420.226562 777.6875 428.234375 778.1875 433.242188 778.464844 C 438.25 778.738281 442.386719 778.996094 442.4375 779.035156 C 442.492188 779.078125 443.289062 783.710938 444.210938 789.332031 C 446.109375 800.886719 450.515625 826.8125 450.835938 828.273438 L 451.042969 829.234375 L 438.011719 829.261719 C 430.84375 829.277344 417.644531 829.445312 408.675781 829.632812 C 399.710938 829.820312 392.300781 829.910156 392.214844 829.832031 C 392.125 829.757812 392.457031 828.007812 392.949219 825.941406 C 393.441406 823.878906 394.804688 817.480469 395.980469 811.726562 C 397.148438 805.972656 399.285156 795.640625 400.71875 788.761719 L 403.332031 776.257812 L 405.050781 776.492188 C 405.996094 776.621094 410.679688 777.003906 415.453125 777.34375 " data-index="0"></path>

<path style=" stroke:none;fill-rule:evenodd;fill:rgb(36.470589%,36.470589%,36.862746%);fill-opacity:1;" d="M 434.625 34.585938 C 434.625 35.644531 434.707031 36.078125 434.808594 35.546875 C 434.910156 35.019531 434.910156 34.15625 434.808594 33.625 C 434.707031 33.097656 434.625 33.53125 434.625 34.585938 M 255.273438 425.601562 C 256.035156 425.695312 257.175781 425.695312 257.8125 425.597656 C 258.449219 425.5 257.828125 425.421875 256.429688 425.425781 C 255.03125 425.425781 254.511719 425.503906 255.273438 425.601562 M 540.386719 466.925781 C 541.648438 468.214844 542.78125 469.273438 542.898438 469.273438 C 543.015625 469.273438 542.074219 468.214844 540.808594 466.925781 C 539.546875 465.632812 538.414062 464.574219 538.296875 464.574219 C 538.183594 464.574219 539.121094 465.632812 540.386719 466.925781 M 355.210938 503.308594 C 355.734375 503.410156 356.59375 503.410156 357.117188 503.308594 C 357.640625 503.203125 357.210938 503.121094 356.164062 503.121094 C 355.117188 503.121094 354.6875 503.203125 355.210938 503.308594 M 409.417969 829.535156 C 409.941406 829.636719 410.800781 829.636719 411.324219 829.535156 C 411.847656 829.433594 411.417969 829.347656 410.371094 829.347656 C 409.324219 829.347656 408.894531 829.433594 409.417969 829.535156 M 515.929688 853.011719 C 516.335938 853.121094 517.003906 853.121094 517.410156 853.011719 C 517.820312 852.90625 517.484375 852.816406 516.671875 852.816406 C 515.855469 852.816406 515.519531 852.90625 515.929688 853.011719 M 354.789062 853.445312 C 355.3125 853.550781 356.167969 853.550781 356.691406 853.445312 C 357.214844 853.34375 356.789062 853.261719 355.738281 853.261719 C 354.691406 853.261719 354.265625 853.34375 354.789062 853.445312 M 503.863281 853.445312 C 504.390625 853.550781 505.152344 853.546875 505.558594 853.4375 C 505.964844 853.332031 505.53125 853.25 504.601562 853.253906 C 503.667969 853.257812 503.339844 853.347656 503.863281 853.445312 M 363.671875 853.878906 C 364.425781 853.976562 365.757812 853.976562 366.636719 853.882812 C 367.511719 853.792969 366.898438 853.714844 365.269531 853.714844 C 363.636719 853.710938 362.917969 853.785156 363.671875 853.878906 M 486.296875 853.890625 C 487.648438 853.972656 489.742188 853.972656 490.957031 853.886719 C 492.171875 853.800781 491.070312 853.730469 488.507812 853.734375 C 485.945312 853.734375 484.953125 853.804688 486.296875 853.890625 " data-index="2"></path>
<path style=" stroke:none;fill-rule:evenodd;fill:rgb(51.764709%,51.764709%,51.764709%);fill-opacity:1;" d="M 434.640625 29.25 C 434.644531 30.660156 434.722656 31.183594 434.816406 30.414062 C 434.910156 29.648438 434.910156 28.496094 434.8125 27.851562 C 434.714844 27.210938 434.640625 27.839844 434.640625 29.25 M 434.609375 67.039062 C 434.609375 67.859375 434.699219 68.199219 434.804688 67.785156 C 434.910156 67.375 434.910156 66.703125 434.804688 66.292969 C 434.699219 65.882812 434.609375 66.21875 434.609375 67.039062 M 396.5 94.152344 C 396.507812 95.09375 396.59375 95.425781 396.695312 94.894531 C 396.796875 94.363281 396.792969 93.597656 396.6875 93.1875 C 396.582031 92.777344 396.496094 93.214844 396.5 94.152344 M 396.09375 106.109375 C 396.097656 107.285156 396.179688 107.710938 396.277344 107.0625 C 396.371094 106.414062 396.371094 105.453125 396.269531 104.929688 C 396.167969 104.402344 396.089844 104.933594 396.09375 106.109375 M 395.667969 122.761719 C 395.675781 123.9375 395.757812 124.367188 395.855469 123.71875 C 395.949219 123.066406 395.945312 122.105469 395.847656 121.582031 C 395.746094 121.054688 395.667969 121.589844 395.667969 122.761719 M 395.253906 138.773438 C 395.253906 140.066406 395.332031 140.597656 395.429688 139.949219 C 395.527344 139.304688 395.527344 138.246094 395.429688 137.601562 C 395.332031 136.957031 395.253906 137.484375 395.253906 138.773438 M 394.816406 153.292969 C 394.816406 154.351562 394.898438 154.785156 395 154.253906 C 395.101562 153.722656 395.101562 152.863281 395 152.332031 C 394.898438 151.804688 394.816406 152.234375 394.816406 153.292969 M 393.105469 189.589844 C 393.105469 190.410156 393.195312 190.746094 393.300781 190.335938 C 393.40625 189.925781 393.40625 189.25 393.300781 188.839844 C 393.195312 188.429688 393.105469 188.765625 393.105469 189.589844 M 247.007812 401.675781 C 247.414062 401.78125 248.082031 401.78125 248.488281 401.675781 C 248.898438 401.566406 248.5625 401.476562 247.746094 401.476562 C 246.933594 401.476562 246.601562 401.566406 247.007812 401.675781 M 236.417969 402.101562 C 236.828125 402.207031 237.496094 402.207031 237.902344 402.101562 C 238.308594 401.996094 237.976562 401.90625 237.160156 401.90625 C 236.34375 401.90625 236.011719 401.996094 236.417969 402.101562 M 226.253906 402.527344 C 226.664062 402.636719 227.332031 402.636719 227.738281 402.527344 C 228.144531 402.421875 227.8125 402.332031 226.996094 402.332031 C 226.179688 402.332031 225.847656 402.421875 226.253906 402.527344 M 233.667969 418.335938 C 234.1875 418.4375 235.050781 418.4375 235.570312 418.335938 C 236.097656 418.230469 235.667969 418.148438 234.617188 418.148438 C 233.570312 418.148438 233.144531 418.230469 233.667969 418.335938 M 244.890625 418.765625 C 245.53125 418.863281 246.578125 418.863281 247.21875 418.765625 C 247.859375 418.667969 247.335938 418.589844 246.054688 418.589844 C 244.773438 418.589844 244.246094 418.667969 244.890625 418.765625 M 258.230469 419.1875 C 258.753906 419.289062 259.613281 419.289062 260.136719 419.1875 C 260.65625 419.085938 260.230469 419.003906 259.183594 419.003906 C 258.132812 419.003906 257.707031 419.085938 258.230469 419.1875 M 234.09375 425.167969 C 234.621094 425.269531 235.382812 425.265625 235.789062 425.15625 C 236.195312 425.050781 235.761719 424.96875 234.832031 424.972656 C 233.898438 424.976562 233.570312 425.066406 234.09375 425.167969 M 244.269531 425.609375 C 245.734375 425.691406 248.023438 425.691406 249.351562 425.609375 C 250.683594 425.523438 249.484375 425.453125 246.6875 425.453125 C 243.894531 425.457031 242.804688 425.523438 244.269531 425.609375 M 263.527344 426.027344 C 264.171875 426.121094 265.125 426.121094 265.648438 426.019531 C 266.167969 425.917969 265.640625 425.839844 264.476562 425.839844 C 263.3125 425.84375 262.886719 425.929688 263.527344 426.027344 M 259.183594 451.550781 C 258.152344 452.609375 257.40625 453.472656 257.523438 453.472656 C 257.640625 453.472656 258.578125 452.609375 259.605469 451.550781 C 260.632812 450.496094 261.378906 449.632812 261.261719 449.632812 C 261.148438 449.632812 260.210938 450.496094 259.183594 451.550781 M 341.871094 527.558594 C 341.875 528.496094 341.964844 528.832031 342.0625 528.300781 C 342.164062 527.769531 342.160156 527 342.054688 526.59375 C 341.949219 526.183594 341.867188 526.617188 341.871094 527.558594 M 373.710938 544.105469 L 372.46875 545.492188 L 373.84375 544.238281 C 374.601562 543.550781 375.222656 542.925781 375.222656 542.851562 C 375.222656 542.519531 374.871094 542.8125 373.710938 544.105469 M 355.851562 551.5625 C 356.496094 551.660156 357.449219 551.660156 357.96875 551.558594 C 358.492188 551.457031 357.964844 551.375 356.796875 551.378906 C 355.632812 551.382812 355.207031 551.464844 355.851562 551.5625 M 585.597656 562.660156 C 586.125 562.761719 586.886719 562.757812 587.292969 562.652344 C 587.699219 562.542969 587.265625 562.460938 586.335938 562.464844 C 585.402344 562.472656 585.074219 562.558594 585.597656 562.660156 M 597.039062 563.101562 C 598.035156 563.191406 599.5625 563.1875 600.425781 563.09375 C 601.296875 563.003906 600.480469 562.929688 598.617188 562.933594 C 596.753906 562.933594 596.042969 563.007812 597.039062 563.101562 M 591.523438 569.9375 C 593.679688 570.011719 597.203125 570.011719 599.359375 569.9375 C 601.515625 569.859375 599.75 569.796875 595.441406 569.796875 C 591.132812 569.796875 589.367188 569.859375 591.523438 569.9375 M 588.136719 583.164062 C 588.894531 583.257812 590.132812 583.257812 590.886719 583.164062 C 591.644531 583.070312 591.027344 582.992188 589.511719 582.992188 C 587.996094 582.992188 587.378906 583.070312 588.136719 583.164062 M 301.53125 653.949219 C 302.320312 654.773438 303.0625 655.445312 303.179688 655.445312 C 303.296875 655.445312 302.746094 654.773438 301.957031 653.949219 C 301.164062 653.128906 300.425781 652.457031 300.308594 652.457031 C 300.191406 652.457031 300.742188 653.128906 301.53125 653.949219 M 566.007812 701.132812 C 566.917969 702.074219 567.757812 702.84375 567.875 702.84375 C 567.988281 702.84375 567.339844 702.074219 566.429688 701.132812 C 565.519531 700.195312 564.683594 699.425781 564.566406 699.425781 C 564.449219 699.425781 565.097656 700.195312 566.007812 701.132812 M 294.007812 704.550781 C 294.007812 705.371094 294.09375 705.710938 294.203125 705.296875 C 294.308594 704.886719 294.308594 704.214844 294.203125 703.804688 C 294.09375 703.390625 294.007812 703.726562 294.007812 704.550781 M 293.65625 722.910156 C 293.65625 726.785156 293.722656 728.371094 293.800781 726.433594 C 293.878906 724.496094 293.878906 721.328125 293.800781 719.386719 C 293.722656 717.453125 293.65625 719.035156 293.65625 722.910156 M 440.546875 779.144531 C 440.953125 779.25 441.621094 779.25 442.027344 779.144531 C 442.4375 779.035156 442.101562 778.945312 441.285156 778.945312 C 440.472656 778.945312 440.136719 779.035156 440.546875 779.144531 M 414.925781 829.546875 C 415.914062 829.636719 417.535156 829.636719 418.523438 829.546875 C 419.515625 829.457031 418.703125 829.382812 416.722656 829.382812 C 414.742188 829.382812 413.933594 829.457031 414.925781 829.546875 M 393.113281 829.964844 C 393.753906 830.066406 394.800781 830.066406 395.441406 829.964844 C 396.085938 829.867188 395.558594 829.789062 394.277344 829.789062 C 392.996094 829.789062 392.472656 829.867188 393.113281 829.964844 M 513.386719 831.664062 C 513.796875 831.769531 514.460938 831.769531 514.871094 831.664062 C 515.277344 831.558594 514.945312 831.46875 514.128906 831.46875 C 513.3125 831.46875 512.980469 831.558594 513.386719 831.664062 M 521.859375 832.089844 C 522.265625 832.199219 522.929688 832.199219 523.339844 832.089844 C 523.75 831.984375 523.414062 831.894531 522.597656 831.894531 C 521.785156 831.894531 521.449219 831.984375 521.859375 832.089844 M 322.8125 851.734375 C 323.222656 851.839844 323.886719 851.839844 324.296875 851.734375 C 324.703125 851.625 324.371094 851.535156 323.554688 851.535156 C 322.738281 851.535156 322.40625 851.625 322.8125 851.734375 M 330.859375 852.160156 C 331.265625 852.265625 331.933594 852.265625 332.339844 852.160156 C 332.75 852.054688 332.414062 851.964844 331.601562 851.964844 C 330.785156 851.964844 330.453125 852.054688 330.859375 852.160156 M 530.542969 852.167969 C 531.070312 852.269531 531.832031 852.265625 532.238281 852.15625 C 532.644531 852.050781 532.210938 851.96875 531.28125 851.972656 C 530.347656 851.976562 530.019531 852.066406 530.542969 852.167969 M 339.542969 852.59375 C 340.0625 852.695312 340.925781 852.695312 341.445312 852.59375 C 341.972656 852.492188 341.542969 852.40625 340.492188 852.40625 C 339.445312 852.40625 339.019531 852.492188 339.542969 852.59375 M 521.441406 852.597656 C 522.085938 852.695312 523.039062 852.695312 523.558594 852.59375 C 524.078125 852.492188 523.550781 852.410156 522.386719 852.414062 C 521.222656 852.417969 520.796875 852.5 521.441406 852.597656 M 348.859375 853.019531 C 349.382812 853.121094 350.242188 853.121094 350.765625 853.019531 C 351.289062 852.917969 350.859375 852.835938 349.8125 852.835938 C 348.761719 852.835938 348.335938 852.917969 348.859375 853.019531 M 509.78125 853.027344 C 510.53125 853.121094 511.867188 853.121094 512.746094 853.03125 C 513.621094 852.9375 513.007812 852.863281 511.375 852.859375 C 509.746094 852.859375 509.027344 852.933594 509.78125 853.027344 M 359.878906 853.460938 C 360.878906 853.550781 362.402344 853.546875 363.269531 853.457031 C 364.136719 853.363281 363.320312 853.292969 361.457031 853.292969 C 359.59375 853.292969 358.882812 853.367188 359.878906 853.460938 M 494.980469 853.460938 C 496.210938 853.546875 498.117188 853.546875 499.214844 853.460938 C 500.3125 853.371094 499.304688 853.300781 496.976562 853.300781 C 494.648438 853.304688 493.75 853.375 494.980469 853.460938 M 375.347656 853.890625 C 377.632812 853.96875 381.253906 853.96875 383.394531 853.890625 C 385.539062 853.8125 383.667969 853.75 379.246094 853.75 C 374.820312 853.753906 373.066406 853.8125 375.347656 853.890625 M 469.152344 853.890625 C 471.085938 853.96875 474.132812 853.96875 475.925781 853.890625 C 477.722656 853.808594 476.140625 853.746094 472.414062 853.746094 C 468.6875 853.746094 467.21875 853.8125 469.152344 853.890625 " data-index="3"></path>
<path style=" stroke:none;fill-rule:evenodd;fill:rgb(18.431373%,18.431373%,18.82353%);fill-opacity:1;" d="M 435.039062 23.699219 C 435.046875 24.636719 435.132812 24.972656 435.234375 24.441406 C 435.335938 23.910156 435.332031 23.140625 435.222656 22.734375 C 435.117188 22.324219 435.035156 22.757812 435.039062 23.699219 M 434.640625 41.632812 C 434.644531 43.042969 434.722656 43.566406 434.816406 42.796875 C 434.910156 42.03125 434.910156 40.878906 434.8125 40.234375 C 434.714844 39.597656 434.640625 40.222656 434.640625 41.632812 M 434.609375 60.207031 C 434.609375 61.027344 434.699219 61.367188 434.804688 60.953125 C 434.910156 60.542969 434.910156 59.871094 434.804688 59.460938 C 434.699219 59.046875 434.609375 59.386719 434.609375 60.207031 M 395.644531 114.863281 C 395.644531 115.683594 395.734375 116.023438 395.839844 115.609375 C 395.945312 115.199219 395.945312 114.527344 395.839844 114.117188 C 395.734375 113.707031 395.644531 114.042969 395.644531 114.863281 M 394.375 160.125 C 394.375 160.945312 394.464844 161.285156 394.570312 160.871094 C 394.675781 160.460938 394.675781 159.789062 394.570312 159.378906 C 394.464844 158.96875 394.375 159.304688 394.375 160.125 M 250.1875 419.1875 C 250.714844 419.289062 251.476562 419.285156 251.882812 419.179688 C 252.289062 419.074219 251.855469 418.988281 250.921875 418.992188 C 249.992188 419 249.660156 419.085938 250.1875 419.1875 M 241.929688 425.171875 C 242.574219 425.269531 243.527344 425.265625 244.046875 425.167969 C 244.570312 425.0625 244.042969 424.984375 242.878906 424.988281 C 241.710938 424.992188 241.285156 425.074219 241.929688 425.171875 M 262.042969 425.59375 C 262.570312 425.695312 263.335938 425.691406 263.738281 425.585938 C 264.144531 425.476562 263.714844 425.394531 262.78125 425.398438 C 261.851562 425.40625 261.519531 425.492188 262.042969 425.59375 M 344.304688 441.726562 C 344.304688 442.019531 346.898438 443.316406 347.09375 443.121094 C 347.183594 443.027344 346.59375 442.632812 345.78125 442.242188 C 344.96875 441.851562 344.304688 441.621094 344.304688 441.726562 M 358.019531 456.664062 C 359.625 457.484375 361.742188 458.632812 362.726562 459.21875 C 364.390625 460.195312 365.058594 460.25 365.058594 459.394531 C 365.058594 459.207031 364.769531 459.160156 364.421875 459.296875 C 364.074219 459.433594 363.785156 459.332031 363.785156 459.070312 C 363.785156 458.8125 363.429688 458.597656 362.992188 458.597656 C 362.554688 458.597656 361.949219 458.296875 361.644531 457.929688 C 360.917969 457.046875 358.882812 456 358.546875 456.335938 C 358.398438 456.484375 358.28125 456.414062 358.28125 456.179688 C 358.28125 455.945312 358.042969 455.75 357.75 455.746094 C 357.460938 455.746094 356.746094 455.617188 356.164062 455.457031 C 355.582031 455.300781 356.417969 455.839844 358.019531 456.664062 M 367.597656 461.996094 C 368.875 462.949219 369.714844 463.320312 369.714844 462.933594 C 369.714844 462.714844 369.382812 462.421875 368.972656 462.277344 C 368.566406 462.132812 367.949219 461.902344 367.597656 461.769531 C 367.03125 461.546875 367.03125 461.574219 367.597656 461.996094 M 406.8125 487.566406 C 406.691406 487.765625 407.140625 488.332031 407.808594 488.832031 C 408.777344 489.554688 409.070312 489.617188 409.25 489.140625 C 409.402344 488.746094 409.0625 488.453125 408.226562 488.269531 C 407.539062 488.117188 407.085938 487.816406 407.214844 487.601562 C 407.351562 487.382812 407.363281 487.207031 407.246094 487.207031 C 407.128906 487.207031 406.933594 487.371094 406.8125 487.566406 M 409.992188 489.742188 C 409.222656 490.21875 410.496094 491.125 411.484375 490.804688 C 412.085938 490.605469 412.136719 490.644531 411.691406 490.964844 C 411.210938 491.308594 411.257812 491.46875 411.953125 491.84375 C 412.417969 492.09375 412.953125 492.164062 413.136719 491.996094 C 413.320312 491.828125 413.351562 491.898438 413.207031 492.15625 C 412.828125 492.832031 415.253906 494.507812 416.171875 494.207031 C 416.761719 494.015625 416.800781 494.054688 416.347656 494.378906 C 415.871094 494.722656 415.925781 494.890625 416.640625 495.273438 C 417.992188 496.003906 418.101562 495.152344 416.816406 493.960938 C 414.6875 492 410.511719 489.417969 409.992188 489.742188 M 418.714844 496.03125 C 418.910156 496.546875 418.832031 496.644531 418.425781 496.390625 C 418.058594 496.164062 417.964844 496.207031 418.15625 496.515625 C 418.3125 496.777344 418.730469 496.878906 419.078125 496.746094 C 419.5625 496.558594 419.597656 496.367188 419.226562 495.910156 C 418.574219 495.121094 418.386719 495.167969 418.714844 496.03125 M 451.449219 521.105469 C 451.449219 521.195312 451.886719 521.558594 452.417969 521.910156 C 453.308594 522.496094 453.386719 522.484375 453.386719 521.746094 C 453.386719 521.191406 453.082031 520.941406 452.417969 520.941406 C 451.886719 520.941406 451.449219 521.015625 451.449219 521.105469 M 454.222656 522.617188 C 453.941406 523.074219 455.035156 524.015625 455.40625 523.640625 C 455.5625 523.488281 455.6875 523.21875 455.6875 523.050781 C 455.6875 522.570312 454.46875 522.210938 454.222656 522.617188 M 457.152344 524.382812 C 457.011719 524.609375 456.671875 524.667969 456.398438 524.507812 C 456.109375 524.339844 456.046875 524.382812 456.25 524.609375 C 456.445312 524.820312 456.777344 525.019531 456.992188 525.050781 C 457.207031 525.078125 457.582031 525.125 457.828125 525.15625 C 458.074219 525.1875 458.140625 525.453125 457.972656 525.742188 C 457.804688 526.039062 457.832031 526.128906 458.03125 525.945312 C 458.628906 525.394531 458.605469 524.429688 457.988281 524.191406 C 457.667969 524.066406 457.292969 524.152344 457.152344 524.382812 M 341.4375 527.773438 C 341.4375 528.59375 341.527344 528.929688 341.632812 528.519531 C 341.738281 528.105469 341.738281 527.4375 341.632812 527.023438 C 341.527344 526.613281 341.4375 526.949219 341.4375 527.773438 M 355.632812 542.589844 C 356.15625 542.695312 357.015625 542.695312 357.539062 542.589844 C 358.0625 542.488281 357.636719 542.40625 356.585938 542.40625 C 355.539062 542.40625 355.109375 542.488281 355.632812 542.589844 M 607.828125 563.519531 C 608.46875 563.617188 609.519531 563.617188 610.15625 563.519531 C 610.800781 563.421875 610.273438 563.339844 608.992188 563.339844 C 607.710938 563.339844 607.1875 563.421875 607.828125 563.519531 M 586.230469 569.484375 C 586.636719 569.59375 587.304688 569.59375 587.710938 569.484375 C 588.121094 569.378906 587.785156 569.289062 586.972656 569.289062 C 586.15625 569.289062 585.820312 569.378906 586.230469 569.484375 M 602.753906 569.5 C 603.394531 569.59375 604.347656 569.59375 604.871094 569.492188 C 605.390625 569.390625 604.863281 569.3125 603.699219 569.3125 C 602.535156 569.316406 602.109375 569.398438 602.753906 569.5 M 579.878906 583.148438 C 580.285156 583.257812 580.953125 583.257812 581.359375 583.148438 C 581.769531 583.042969 581.433594 582.953125 580.617188 582.953125 C 579.804688 582.953125 579.46875 583.042969 579.878906 583.148438 M 527.019531 750.773438 L 525.773438 752.160156 L 527.152344 750.90625 C 528.433594 749.738281 528.722656 749.386719 528.394531 749.386719 C 528.324219 749.386719 527.703125 750.011719 527.019531 750.773438 M 442.453125 829.121094 C 443.910156 829.207031 446.289062 829.207031 447.746094 829.121094 C 449.203125 829.039062 448.011719 828.972656 445.097656 828.972656 C 442.1875 828.972656 440.996094 829.039062 442.453125 829.121094 M 403.492188 829.535156 C 404.019531 829.636719 404.785156 829.632812 405.1875 829.527344 C 405.59375 829.417969 405.164062 829.335938 404.230469 829.339844 C 403.300781 829.347656 402.96875 829.433594 403.492188 829.535156 M 325.355469 852.160156 C 325.761719 852.265625 326.429688 852.265625 326.835938 852.160156 C 327.246094 852.054688 326.910156 851.964844 326.09375 851.964844 C 325.28125 851.964844 324.949219 852.054688 325.355469 852.160156 M 340.386719 853.019531 C 340.914062 853.121094 341.769531 853.121094 342.292969 853.019531 C 342.820312 852.917969 342.390625 852.835938 341.339844 852.835938 C 340.292969 852.835938 339.863281 852.917969 340.386719 853.019531 M 520.585938 853.011719 C 520.996094 853.121094 521.660156 853.121094 522.070312 853.011719 C 522.476562 852.90625 522.144531 852.816406 521.328125 852.816406 C 520.511719 852.816406 520.179688 852.90625 520.585938 853.011719 M 346.210938 853.574219 L 342.824219 853.84375 L 345.789062 853.890625 C 347.417969 853.917969 349.609375 853.78125 350.65625 853.59375 C 353.042969 853.167969 351.402344 853.160156 346.210938 853.574219 M 505.023438 853.570312 C 502.214844 853.765625 503.714844 853.859375 510.703125 853.917969 C 515.925781 853.964844 520.121094 853.929688 520.023438 853.84375 C 519.648438 853.511719 508.640625 853.308594 505.023438 853.570312 " data-index="4"></path>
<path style=" stroke:none;fill-rule:evenodd;fill:rgb(47.843137%,47.843137%,51.764709%);fill-opacity:1;" d="M 380.402344 526.917969 C 380.402344 527.738281 380.488281 528.078125 380.59375 527.664062 C 380.699219 527.253906 380.699219 526.582031 380.59375 526.171875 C 380.488281 525.757812 380.402344 526.097656 380.402344 526.917969 M 371.082031 527.773438 C 371.082031 528.59375 371.171875 528.929688 371.277344 528.519531 C 371.382812 528.105469 371.382812 527.4375 371.277344 527.023438 C 371.171875 526.613281 371.082031 526.949219 371.082031 527.773438 M 480.777344 853.878906 C 481.421875 853.976562 482.464844 853.976562 483.109375 853.878906 C 483.75 853.78125 483.222656 853.699219 481.941406 853.699219 C 480.660156 853.699219 480.140625 853.78125 480.777344 853.878906 " data-index="5"></path>
<path style=" stroke:none;fill-rule:evenodd;fill:rgb(23.529412%,26.666668%,25.882354%);fill-opacity:1;" d="M 259.289062 425.585938 C 259.695312 425.695312 260.363281 425.695312 260.769531 425.585938 C 261.179688 425.480469 260.84375 425.390625 260.027344 425.390625 C 259.214844 425.390625 258.882812 425.480469 259.289062 425.585938 M 352.609375 853.644531 C 352.726562 853.839844 355.054688 853.980469 357.777344 853.949219 C 363.609375 853.890625 363.261719 853.691406 356.921875 853.457031 C 354.429688 853.363281 352.488281 853.445312 352.609375 853.644531 M 494.550781 853.886719 C 495.550781 853.976562 497.074219 853.972656 497.941406 853.882812 C 498.808594 853.789062 497.992188 853.71875 496.128906 853.71875 C 494.265625 853.71875 493.558594 853.796875 494.550781 853.886719 " data-index="6"></path>
<path style=" stroke:none;fill-rule:evenodd;fill:rgb(22.352941%,22.352941%,26.666668%);fill-opacity:1;" d="M 350.128906 853.875 C 350.652344 853.976562 351.511719 853.976562 352.035156 853.875 C 352.558594 853.773438 352.128906 853.6875 351.082031 853.6875 C 350.035156 853.6875 349.605469 853.773438 350.128906 853.875 " data-index="7"></path>
</g>
</svg>