<?xml version="1.0" encoding="UTF-8"?>
<svg version="1.1" xmlns="http://www.w3.org/2000/svg" width="150" height="150">
<path d="M0 0 C18.44543229 10.93176705 29.69358053 27.91271806 35.33984375 48.38671875 C41.12088239 73.23012199 38.74217542 97.40712485 26.0703125 119.75390625 C22.99111374 124.43873687 19.28753227 128.42505611 15.33984375 132.38671875 C14.78683594 132.96292969 14.23382813 133.53914062 13.6640625 134.1328125 C5.51527187 141.9176373 -6.38658597 146.33539315 -17.53515625 146.4140625 C-33.14193405 146.02965038 -46.80840296 142.00564851 -58.41015625 131.07421875 C-75.89546689 112.25351446 -79.6708009 89.76980975 -79.0390625 64.9921875 C-78.16688599 45.64299264 -70.21029646 28.01892462 -57.22265625 13.69921875 C-56.37703125 12.93609375 -55.53140625 12.17296875 -54.66015625 11.38671875 C-54.02722656 10.76152344 -53.39429687 10.13632813 -52.7421875 9.4921875 C-39.57217034 -3.07177577 -17.03151325 -7.86706852 0 0 Z " fill="#181818" transform="translate(94.66015625,2.61328125)"/>
<path d="M0 0 C11.12855124 0.51865588 21.14756149 2.88894276 30.04296875 10.0546875 C30.04296875 10.7146875 30.04296875 11.3746875 30.04296875 12.0546875 C30.64109375 12.3021875 31.23921875 12.5496875 31.85546875 12.8046875 C34.35923794 14.23541275 35.52369263 15.6238457 37.04296875 18.0546875 C37.04296875 18.7146875 37.04296875 19.3746875 37.04296875 20.0546875 C37.70296875 20.0546875 38.36296875 20.0546875 39.04296875 20.0546875 C40.55078125 22.171875 40.55078125 22.171875 42.16796875 24.9296875 C42.70679687 25.83460937 43.245625 26.73953125 43.80078125 27.671875 C45.04296875 30.0546875 45.04296875 30.0546875 45.04296875 32.0546875 C42.91803734 32.08162325 40.79300963 32.10105378 38.66796875 32.1171875 C37.48460938 32.12878906 36.30125 32.14039063 35.08203125 32.15234375 C32.04296875 32.0546875 32.04296875 32.0546875 30.04296875 31.0546875 C29.38296875 32.3746875 28.72296875 33.6946875 28.04296875 35.0546875 C27.71296875 34.3946875 27.38296875 33.7346875 27.04296875 33.0546875 C21.78000858 33.23947789 21.78000858 33.23947789 17.29296875 35.4921875 C16.67421875 36.265625 16.67421875 36.265625 16.04296875 37.0546875 C12.35703766 39.17689025 10.3518826 39.0546875 6.04296875 39.0546875 C5.38296875 38.0646875 4.72296875 37.0746875 4.04296875 36.0546875 C4.55302763 42.43447164 6.74090818 46.27199359 10.24804688 51.51171875 C13.04296875 55.78749435 13.04296875 55.78749435 13.04296875 59.0546875 C13.70296875 59.0546875 14.36296875 59.0546875 15.04296875 59.0546875 C16.33984375 60.6640625 16.33984375 60.6640625 17.79296875 62.8046875 C20.47203641 66.4745539 22.88535049 69.02010835 27.04296875 71.0546875 C29.83858042 70.93222941 29.83858042 70.93222941 32.04296875 70.0546875 C32.04296875 70.7146875 32.04296875 71.3746875 32.04296875 72.0546875 C33.36296875 72.0546875 34.68296875 72.0546875 36.04296875 72.0546875 C36.37296875 72.7146875 36.70296875 73.3746875 37.04296875 74.0546875 C39.5703011 74.71023869 39.5703011 74.71023869 42.04296875 75.0546875 C42.53796875 79.5096875 42.53796875 79.5096875 43.04296875 84.0546875 C41.06296875 84.0546875 39.08296875 84.0546875 37.04296875 84.0546875 C36.71296875 82.7346875 36.38296875 81.4146875 36.04296875 80.0546875 C35.54796875 81.5396875 35.54796875 81.5396875 35.04296875 83.0546875 C27.12296875 83.0546875 19.20296875 83.0546875 11.04296875 83.0546875 C11.37296875 84.0446875 11.70296875 85.0346875 12.04296875 86.0546875 C12.11151825 87.94939566 12.12777247 89.8463709 12.10546875 91.7421875 C12.09644531 92.73605469 12.08742187 93.72992188 12.078125 94.75390625 C12.06652344 95.51316406 12.05492187 96.27242188 12.04296875 97.0546875 C7.29296875 99.0546875 7.29296875 99.0546875 5.04296875 99.0546875 C4.71296875 99.7146875 4.38296875 100.3746875 4.04296875 101.0546875 C4.70296875 101.0546875 5.36296875 101.0546875 6.04296875 101.0546875 C5.71296875 101.7146875 5.38296875 102.3746875 5.04296875 103.0546875 C4.05296875 103.0546875 3.06296875 103.0546875 2.04296875 103.0546875 C2.04296875 103.7146875 2.04296875 104.3746875 2.04296875 105.0546875 C1.38296875 105.0546875 0.72296875 105.0546875 0.04296875 105.0546875 C0.37296875 103.0746875 0.70296875 101.0946875 1.04296875 99.0546875 C-0.27703125 100.0446875 -1.59703125 101.0346875 -2.95703125 102.0546875 C-3.28703125 101.0646875 -3.61703125 100.0746875 -3.95703125 99.0546875 C-4.61703125 99.0546875 -5.27703125 99.0546875 -5.95703125 99.0546875 C-5.95703125 98.3946875 -5.95703125 97.7346875 -5.95703125 97.0546875 C-4.63703125 97.0546875 -3.31703125 97.0546875 -1.95703125 97.0546875 C-2.94703125 96.5596875 -2.94703125 96.5596875 -3.95703125 96.0546875 C-3.95703125 95.3946875 -3.95703125 94.7346875 -3.95703125 94.0546875 C-6.43203125 94.5496875 -6.43203125 94.5496875 -8.95703125 95.0546875 C-8.95703125 93.7346875 -8.95703125 92.4146875 -8.95703125 91.0546875 C-7.98765625 90.5803125 -7.01828125 90.1059375 -6.01953125 89.6171875 C-3.15225688 88.35274803 -3.15225688 88.35274803 -1.95703125 87.0546875 C-1.88476623 85.20181248 -1.87321905 83.34634872 -1.89453125 81.4921875 C-1.90355469 80.48027344 -1.91257813 79.46835938 -1.921875 78.42578125 C-1.93347656 77.64332031 -1.94507813 76.86085938 -1.95703125 76.0546875 C-2.94703125 75.7246875 -3.93703125 75.3946875 -4.95703125 75.0546875 C-6.64453125 73.4921875 -6.64453125 73.4921875 -7.95703125 72.0546875 C-7.66828125 72.74175781 -7.37953125 73.42882812 -7.08203125 74.13671875 C-6.71078125 75.03777344 -6.33953125 75.93882813 -5.95703125 76.8671875 C-5.58578125 77.76050781 -5.21453125 78.65382813 -4.83203125 79.57421875 C-3.95703125 82.0546875 -3.95703125 82.0546875 -3.95703125 85.0546875 C-17.81703125 84.5596875 -17.81703125 84.5596875 -31.95703125 84.0546875 C-32.95703125 81.0546875 -32.95703125 81.0546875 -31.51953125 77.8671875 C-31.00390625 76.9390625 -30.48828125 76.0109375 -29.95703125 75.0546875 C-29.29703125 75.0546875 -28.63703125 75.0546875 -27.95703125 75.0546875 C-27.83328125 74.2709375 -27.70953125 73.4871875 -27.58203125 72.6796875 C-26.95703125 70.0546875 -26.95703125 70.0546875 -24.95703125 68.0546875 C-24.21000853 66.37854234 -23.46816734 64.69961193 -22.76904297 63.00292969 C-21.45412207 59.84806835 -19.97650009 56.77083492 -18.51953125 53.6796875 C-17.90318502 52.36219464 -17.28729778 51.04448697 -16.671875 49.7265625 C-15.66477028 47.5699788 -14.65711083 45.41366356 -13.6484375 43.2578125 C-11.94586451 39.54083996 -10.48590214 36.15343686 -9.95703125 32.0546875 C-12.52698199 33.33966287 -12.86137588 34.55381123 -14.08203125 37.1171875 C-14.43523438 37.85066406 -14.7884375 38.58414063 -15.15234375 39.33984375 C-15.41789062 39.90574219 -15.6834375 40.47164062 -15.95703125 41.0546875 C-16.61703125 41.0546875 -17.27703125 41.0546875 -17.95703125 41.0546875 C-20.95703125 36.67007212 -20.95703125 36.67007212 -20.95703125 34.0546875 C-22.07078125 33.6215625 -22.07078125 33.6215625 -23.20703125 33.1796875 C-25.95703125 32.0546875 -25.95703125 32.0546875 -27.76953125 30.9609375 C-30.63284881 29.77470594 -32.64792746 30.06550848 -35.70703125 30.4296875 C-36.691875 30.54054688 -37.67671875 30.65140625 -38.69140625 30.765625 C-39.4390625 30.86101563 -40.18671875 30.95640625 -40.95703125 31.0546875 C-38.95703125 29.0546875 -36.95703125 27.0546875 -34.95703125 25.0546875 C-28.16917551 25.11078548 -23.62535019 26.53060201 -18.64453125 31.2421875 C-18.08765625 31.8403125 -17.53078125 32.4384375 -16.95703125 33.0546875 C-19.72562889 27.51749221 -23.44930979 25.03810768 -29.14453125 22.8046875 C-31.95501826 21.92585617 -31.95501826 21.92585617 -34.95703125 22.0546875 C-33.4629601 17.3234622 -33.4629601 17.3234622 -30.95703125 15.9921875 C-30.29703125 15.6828125 -29.63703125 15.3734375 -28.95703125 15.0546875 C-28.67472656 14.44882812 -28.39242187 13.84296875 -28.1015625 13.21875 C-25.76355423 8.79807907 -21.26179598 6.35762511 -16.95703125 4.0546875 C-13.4982348 2.99014681 -10.10409264 2.21832309 -6.546875 1.5625 C-3.35985051 0.93759324 -3.36902649 0.06230696 0 0 Z " fill="#F4F4F4" transform="translate(72.95703125,2.9453125)"/>
<path d="M0 0 C0.99 0 1.98 0 3 0 C5.66985203 8.69855016 4.27905614 18.88889672 2.625 27.6875 C2.49899414 28.35813477 2.37298828 29.02876953 2.24316406 29.71972656 C1.55103105 33.10789891 0.64414397 35.96819852 -1 39 C-1.43672535 40.36876115 -1.85260495 41.74430695 -2.25 43.125 C-4.37530307 49.70799003 -8.18869659 55.28304488 -12 61 C-12.66 61 -13.32 61 -14 61 C-14.020625 61.5775 -14.04125 62.155 -14.0625 62.75 C-15.60679013 66.4562963 -18.4367181 67.31212963 -22 69 C-22.99 68.505 -22.99 68.505 -24 68 C-23.01 67.01 -22.02 66.02 -21 65 C-21.66 65 -22.32 65 -23 65 C-22.125 61.125 -22.125 61.125 -21 60 C-21.64066406 59.88785156 -22.28132813 59.77570313 -22.94140625 59.66015625 C-29.80605476 58.09489362 -32.78830999 55.66759914 -36.72265625 49.86328125 C-37.35494141 48.94095703 -37.35494141 48.94095703 -38 48 C-38.33 48 -38.66 48 -39 48 C-35.53426193 55.45290816 -35.53426193 55.45290816 -29 60 C-26.30745009 60.70670728 -26.30745009 60.70670728 -24 61 C-25 64 -25 64 -27 65 C-26.01 65.66 -25.02 66.32 -24 67 C-25 68 -25 68 -27.5625 68.0625 C-28.366875 68.041875 -29.17125 68.02125 -30 68 C-29.505 66.02 -29.505 66.02 -29 64 C-29.66 64 -30.32 64 -31 64 C-31.495 65.485 -31.495 65.485 -32 67 C-32.721875 66.773125 -33.44375 66.54625 -34.1875 66.3125 C-37.75584692 65.91601701 -39.13871099 66.95622213 -42 69 C-42 67 -42 67 -40 65 C-40.99 64.505 -40.99 64.505 -42 64 C-41.34 63.34 -40.68 62.68 -40 62 C-40.99 61.505 -40.99 61.505 -42 61 C-42 61.66 -42 62.32 -42 63 C-42.66 62.67 -43.32 62.34 -44 62 C-43.67 61.34 -43.34 60.68 -43 60 C-43.47050781 60.37253906 -43.94101563 60.74507812 -44.42578125 61.12890625 C-45.04839844 61.60199219 -45.67101562 62.07507813 -46.3125 62.5625 C-46.92738281 63.03816406 -47.54226562 63.51382813 -48.17578125 64.00390625 C-48.77777344 64.33261719 -49.37976563 64.66132812 -50 65 C-51.485 64.505 -51.485 64.505 -53 64 C-51.02 62.68 -49.04 61.36 -47 60 C-51.03002063 61.34334021 -54.51315214 63.45434287 -58.2109375 65.52734375 C-60.76454507 66.87567716 -63.29991718 67.98378701 -66 69 C-66 68.34 -66 67.68 -66 67 C-61.05 64.36 -56.1 61.72 -51 59 C-54.62114435 60.20704812 -57.58556472 62.07329072 -60.84375 64.0390625 C-63 65 -63 65 -66 64 C-64.85660156 63.37351563 -63.71320312 62.74703125 -62.53515625 62.1015625 C-61.0441112 61.27633002 -59.55323445 60.45079342 -58.0625 59.625 C-57.30775391 59.2125 -56.55300781 58.8 -55.77539062 58.375 C-55.05673828 57.97539063 -54.33808594 57.57578125 -53.59765625 57.1640625 C-52.93258057 56.79748535 -52.26750488 56.4309082 -51.58227539 56.05322266 C-49.83143994 55.0768444 -49.83143994 55.0768444 -49 53 C-49.96421875 53.56589844 -50.9284375 54.13179687 -51.921875 54.71484375 C-53.19776699 55.45598689 -54.47381699 56.19685807 -55.75 56.9375 C-56.38421875 57.31068359 -57.0184375 57.68386719 -57.671875 58.06835938 C-60.76291632 59.85536764 -63.51467668 61.24885273 -67 62 C-64.51895833 59.20044622 -61.78388196 57.6317003 -58.5 55.875 C-57.06140625 55.09769531 -57.06140625 55.09769531 -55.59375 54.3046875 C-53 53 -53 53 -50 52 C-50 51.34 -50 50.68 -50 50 C-52.97 51.65 -55.94 53.3 -59 55 C-59 54.34 -59 53.68 -59 53 C-57.46875 51.7109375 -57.46875 51.7109375 -55.5 50.375 C-54.8503125 49.92898437 -54.200625 49.48296875 -53.53125 49.0234375 C-53.0259375 48.68570313 -52.520625 48.34796875 -52 48 C-52.78375 48.495 -53.5675 48.99 -54.375 49.5 C-57 51 -57 51 -59 51 C-59 49 -59 49 -58 48 C-59.3921875 49.0209375 -59.3921875 49.0209375 -60.8125 50.0625 C-62.3903125 51.0215625 -62.3903125 51.0215625 -64 52 C-64.99 51.67 -65.98 51.34 -67 51 C-65.35 49.68 -63.7 48.36 -62 47 C-63.98 47.495 -63.98 47.495 -66 48 C-64 46 -62 44 -60 42 C-60.495 40.515 -60.495 40.515 -61 39 C-61.55429687 39.37253906 -62.10859375 39.74507812 -62.6796875 40.12890625 C-63.40414062 40.60199219 -64.12859375 41.07507813 -64.875 41.5625 C-65.59429687 42.03816406 -66.31359375 42.51382813 -67.0546875 43.00390625 C-68.01761719 43.49697266 -68.01761719 43.49697266 -69 44 C-69.66 43.67 -70.32 43.34 -71 43 C-70.34 42.34 -69.68 41.68 -69 41 C-70.98 41.495 -70.98 41.495 -73 42 C-70.82575883 39.49962266 -69.26954202 38.56371414 -66 38 C-66 37.34 -66 36.68 -66 36 C-63 34 -63 34 -61.25 34.25 C-60.5075 34.4975 -59.765 34.745 -59 35 C-57.14375 35.5259375 -57.14375 35.5259375 -55.25 36.0625 C-54.1775 36.371875 -53.105 36.68125 -52 37 C-52 37.66 -52 38.32 -52 39 C-53.32 39 -54.64 39 -56 39 C-56 39.66 -56 40.32 -56 41 C-54.02 40.505 -54.02 40.505 -52 40 C-52 40.99 -52 41.98 -52 43 C-50.68 41.68 -49.36 40.36 -48 39 C-48.66666667 41.66666667 -49.33333333 44.33333333 -50 47 C-49.34 47 -48.68 47 -48 47 C-48.33 46.01 -48.66 45.02 -49 44 C-46.525 43.505 -46.525 43.505 -44 43 C-44.66 43 -45.32 43 -46 43 C-45.67 42.01 -45.34 41.02 -45 40 C-41.535 39.505 -41.535 39.505 -38 39 C-38.33 34.38 -38.66 29.76 -39 25 C-31.53887532 22.51295844 -22.67942917 23.97607611 -15 25 C-14.67 23.68 -14.34 22.36 -14 21 C-13.34 21.33 -12.68 21.66 -12 22 C-12.495 23.485 -12.495 23.485 -13 25 C-11.35 25 -9.7 25 -8 25 C-8.185625 24.236875 -8.37125 23.47375 -8.5625 22.6875 C-9 20 -9 20 -8 17 C-9.65 17 -11.3 17 -13 17 C-13.495 15.515 -13.495 15.515 -14 14 C-16.8754593 13.26059618 -18.70408328 12.92954364 -21.625 13.625 C-22.800625 13.810625 -22.800625 13.810625 -24 14 C-25.625 12.6875 -25.625 12.6875 -27 11 C-27.99 10.34 -28.98 9.68 -30 9 C-29.67 8.34 -29.34 7.68 -29 7 C-28.32066406 7.48855469 -27.64132813 7.97710937 -26.94140625 8.48046875 C-23.36722221 10.32689318 -20.94092007 10.36816253 -16.9375 10.3125 C-15.72964844 10.30863281 -14.52179688 10.30476563 -13.27734375 10.30078125 C-9.41190621 9.94602715 -7.18137992 9.23060408 -4.5 6.4375 C-2.72539815 4.73683989 -1.38993744 4.41205818 1 4 C0.01 3.505 0.01 3.505 -1 3 C-0.67 2.01 -0.34 1.02 0 0 Z " fill="#989898" transform="translate(123,61)"/>
<path d="M0 0 C0.99 0 1.98 0 3 0 C3.66 0.66 4.32 1.32 5 2 C5.66 1.34 6.32 0.68 7 0 C7.1953125 2.05078125 7.390625 4.1015625 7.5859375 6.15234375 C7.79089844 7.06693359 7.79089844 7.06693359 8 8 C8.66 8.33 9.32 8.66 10 9 C10.474375 10.134375 10.94875 11.26875 11.4375 12.4375 C12.70190988 16.19068113 12.70190988 16.19068113 16 18 C16 18.66 16 19.32 16 20 C16.66 20 17.32 20 18 20 C18 21.32 18 22.64 18 24 C18.66 24.33 19.32 24.66 20 25 C20.66 25.515625 21.32 26.03125 22 26.5625 C23.86017053 28.19454535 23.86017053 28.19454535 26 28 C27.02297922 28.97648017 28.01904252 29.98131338 29 31 C30.80694275 32.81362992 30.80694275 32.81362992 33 34 C35.6984589 33.77802187 35.6984589 33.77802187 38 33 C38 33.66 38 34.32 38 35 C39.32 35 40.64 35 42 35 C42.33 35.66 42.66 36.32 43 37 C45.52733235 37.65555119 45.52733235 37.65555119 48 38 C48.495 42.455 48.495 42.455 49 47 C47.02 47 45.04 47 43 47 C42.505 45.02 42.505 45.02 42 43 C41.67 43.99 41.34 44.98 41 46 C33.08 46 25.16 46 17 46 C17.33 46.99 17.66 47.98 18 49 C18.0685495 50.89470816 18.08480372 52.7916834 18.0625 54.6875 C18.05347656 55.68136719 18.04445312 56.67523438 18.03515625 57.69921875 C18.02355469 58.45847656 18.01195312 59.21773437 18 60 C13.25 62 13.25 62 11 62 C10.505 62.99 10.505 62.99 10 64 C10.66 64 11.32 64 12 64 C11.67 64.66 11.34 65.32 11 66 C10.01 66 9.02 66 8 66 C8 66.66 8 67.32 8 68 C7.34 68 6.68 68 6 68 C6.33 66.02 6.66 64.04 7 62 C5.68 62.99 4.36 63.98 3 65 C2.505 63.515 2.505 63.515 2 62 C1.34 62 0.68 62 0 62 C0 61.34 0 60.68 0 60 C1.32 60 2.64 60 4 60 C3.34 59.67 2.68 59.34 2 59 C2 58.34 2 57.68 2 57 C-0.475 57.495 -0.475 57.495 -3 58 C-3 56.68 -3 55.36 -3 54 C-2.030625 53.525625 -1.06125 53.05125 -0.0625 52.5625 C2.80477437 51.29806053 2.80477437 51.29806053 4 50 C4.07226502 48.14712498 4.0838122 46.29166122 4.0625 44.4375 C4.05347656 43.42558594 4.04445313 42.41367188 4.03515625 41.37109375 C4.02355469 40.58863281 4.01195313 39.80617187 4 39 C2.515 38.505 2.515 38.505 1 38 C-0.6875 36.4375 -0.6875 36.4375 -2 35 C-1.71125 35.68707031 -1.4225 36.37414062 -1.125 37.08203125 C-0.568125 38.43361328 -0.568125 38.43361328 0 39.8125 C0.37125 40.70582031 0.7425 41.59914062 1.125 42.51953125 C2 45 2 45 2 48 C-11.86 47.505 -11.86 47.505 -26 47 C-27 44 -27 44 -25.5625 40.8125 C-25.046875 39.884375 -24.53125 38.95625 -24 38 C-23.34 38 -22.68 38 -22 38 C-21.87625 37.21625 -21.7525 36.4325 -21.625 35.625 C-21 33 -21 33 -19 31 C-18.25405009 29.32990102 -17.51350314 27.65689328 -16.81640625 25.96582031 C-15.47095147 22.72610682 -13.98007585 19.55490096 -12.5 16.375 C-12.20480469 15.73304687 -11.90960938 15.09109375 -11.60546875 14.4296875 C-9.92826627 10.82407159 -8.26930034 7.27244118 -6 4 C-3.3125 3.1875 -3.3125 3.1875 -1 3 C-1 3.66 -1 4.32 -1 5 C-0.01 5 0.98 5 2 5 C1.34 3.35 0.68 1.7 0 0 Z " fill="#F4F4F3" transform="translate(67,40)"/>
<path d="M0 0 C9.99333068 0.46574793 19.63155328 1.64327203 27.04296875 9.0546875 C23.08296875 8.7246875 19.12296875 8.3946875 15.04296875 8.0546875 C15.04296875 6.0546875 15.04296875 6.0546875 16.04296875 5.0546875 C10.6350949 6.15255175 10.6350949 6.15255175 7.04296875 10.0546875 C3.48046875 10.3046875 3.48046875 10.3046875 0.04296875 10.0546875 C-0.45203125 9.5596875 -0.45203125 9.5596875 -0.95703125 9.0546875 C-1.28703125 9.7146875 -1.61703125 10.3746875 -1.95703125 11.0546875 C-3.27703125 11.0546875 -4.59703125 11.0546875 -5.95703125 11.0546875 C-5.95703125 12.0446875 -5.95703125 13.0346875 -5.95703125 14.0546875 C-4.63703125 14.0546875 -3.31703125 14.0546875 -1.95703125 14.0546875 C-1.95703125 16.6946875 -1.95703125 19.3346875 -1.95703125 22.0546875 C-2.45203125 21.0646875 -2.45203125 21.0646875 -2.95703125 20.0546875 C-5.92703125 20.5496875 -5.92703125 20.5496875 -8.95703125 21.0546875 C-9.28703125 22.3746875 -9.61703125 23.6946875 -9.95703125 25.0546875 C-9.29703125 25.0546875 -8.63703125 25.0546875 -7.95703125 25.0546875 C-7.95703125 24.3946875 -7.95703125 23.7346875 -7.95703125 23.0546875 C-7.29703125 23.0546875 -6.63703125 23.0546875 -5.95703125 23.0546875 C-5.95703125 24.7046875 -5.95703125 26.3546875 -5.95703125 28.0546875 C-4.96703125 28.3846875 -3.97703125 28.7146875 -2.95703125 29.0546875 C-2.26953125 31.1171875 -2.26953125 31.1171875 -1.95703125 33.0546875 C-0.96703125 33.0546875 0.02296875 33.0546875 1.04296875 33.0546875 C1.70296875 32.3946875 2.36296875 31.7346875 3.04296875 31.0546875 C4.04296875 33.0546875 4.04296875 33.0546875 3.859375 36.7265625 C3.80040669 41.47404793 5.45161136 44.39684633 7.98046875 48.3046875 C12.49493424 55.5403075 12.49493424 55.5403075 13.04296875 59.0546875 C13.70296875 59.0546875 14.36296875 59.0546875 15.04296875 59.0546875 C16.42529318 60.68095154 17.7623439 62.3471877 19.04296875 64.0546875 C18.71296875 64.7146875 18.38296875 65.3746875 18.04296875 66.0546875 C15.07296875 65.0646875 12.10296875 64.0746875 9.04296875 63.0546875 C10.03296875 62.3946875 11.02296875 61.7346875 12.04296875 61.0546875 C12.04296875 59.7346875 12.04296875 58.4146875 12.04296875 57.0546875 C11.38296875 57.0546875 10.72296875 57.0546875 10.04296875 57.0546875 C10.04296875 56.3946875 10.04296875 55.7346875 10.04296875 55.0546875 C9.42421875 54.7865625 8.80546875 54.5184375 8.16796875 54.2421875 C6.04296875 53.0546875 6.04296875 53.0546875 4.04296875 50.0546875 C4.04296875 48.7346875 4.04296875 47.4146875 4.04296875 46.0546875 C3.05296875 45.7246875 2.06296875 45.3946875 1.04296875 45.0546875 C0.54796875 42.0846875 0.54796875 42.0846875 0.04296875 39.0546875 C-0.94703125 39.0546875 -1.93703125 39.0546875 -2.95703125 39.0546875 C-2.95703125 38.3946875 -2.95703125 37.7346875 -2.95703125 37.0546875 C-3.94703125 37.5496875 -3.94703125 37.5496875 -4.95703125 38.0546875 C-4.46203125 40.0346875 -4.46203125 40.0346875 -3.95703125 42.0546875 C-4.94703125 42.0546875 -5.93703125 42.0546875 -6.95703125 42.0546875 C-6.95703125 41.3946875 -6.95703125 40.7346875 -6.95703125 40.0546875 C-9.43203125 40.5496875 -9.43203125 40.5496875 -11.95703125 41.0546875 C-11.29703125 38.0846875 -10.63703125 35.1146875 -9.95703125 32.0546875 C-12.52698199 33.33966287 -12.86137588 34.55381123 -14.08203125 37.1171875 C-14.43523438 37.85066406 -14.7884375 38.58414063 -15.15234375 39.33984375 C-15.41789062 39.90574219 -15.6834375 40.47164062 -15.95703125 41.0546875 C-16.61703125 41.0546875 -17.27703125 41.0546875 -17.95703125 41.0546875 C-20.95703125 36.67007212 -20.95703125 36.67007212 -20.95703125 34.0546875 C-22.07078125 33.6215625 -22.07078125 33.6215625 -23.20703125 33.1796875 C-25.95703125 32.0546875 -25.95703125 32.0546875 -27.76953125 30.9609375 C-30.63284881 29.77470594 -32.64792746 30.06550848 -35.70703125 30.4296875 C-36.691875 30.54054688 -37.67671875 30.65140625 -38.69140625 30.765625 C-39.4390625 30.86101563 -40.18671875 30.95640625 -40.95703125 31.0546875 C-38.95703125 29.0546875 -36.95703125 27.0546875 -34.95703125 25.0546875 C-28.16917551 25.11078548 -23.62535019 26.53060201 -18.64453125 31.2421875 C-18.08765625 31.8403125 -17.53078125 32.4384375 -16.95703125 33.0546875 C-19.72562889 27.51749221 -23.44930979 25.03810768 -29.14453125 22.8046875 C-31.95501826 21.92585617 -31.95501826 21.92585617 -34.95703125 22.0546875 C-33.4629601 17.3234622 -33.4629601 17.3234622 -30.95703125 15.9921875 C-30.29703125 15.6828125 -29.63703125 15.3734375 -28.95703125 15.0546875 C-28.67472656 14.44882812 -28.39242187 13.84296875 -28.1015625 13.21875 C-25.76355423 8.79807907 -21.26179598 6.35762511 -16.95703125 4.0546875 C-13.4982348 2.99014681 -10.10409264 2.21832309 -6.546875 1.5625 C-3.35985051 0.93759324 -3.36902649 0.06230696 0 0 Z " fill="#CECECE" transform="translate(72.95703125,2.9453125)"/>
<path d="M0 0 C5.39533074 2.77083893 9.59276038 6.72308928 12.0625 12.3125 C12.60316369 17.98946875 12.16299582 21.37467333 9.0625 26.3125 C6.23526388 29.72874365 3.80112448 30.23738565 -0.625 30.6875 C-5.61511198 30.604943 -9.28076018 28.63349125 -12.9375 25.3125 C-17.80562439 20.09984256 -18.809209 15.35861644 -19.25 8.375 C-19.32283203 7.50037109 -19.39566406 6.62574219 -19.47070312 5.72460938 C-19.64577387 3.58874634 -19.79438092 1.45074171 -19.9375 -0.6875 C-13.52743882 -2.82418706 -6.24166928 -2.60156972 0 0 Z " fill="#A1A1A1" transform="translate(103.9375,86.6875)"/>
<path d="M0 0 C1.65 0 3.3 0 5 0 C4.67 1.32 4.34 2.64 4 4 C4.66 4 5.32 4 6 4 C6 4.66 6 5.32 6 6 C6.66 6 7.32 6 8 6 C7.67 7.65 7.34 9.3 7 11 C8.65 11 10.3 11 12 11 C11.1025641 16.64102564 11.1025641 16.64102564 10.375 19.1875 C9.79566718 21.22346469 9.79566718 21.22346469 11 24 C10.34 24.33 9.68 24.66 9 25 C9.66 25.33 10.32 25.66 11 26 C11 26.66 11 27.32 11 28 C9.68 28 8.36 28 7 28 C7 28.66 7 29.32 7 30 C6.34 30 5.68 30 5 30 C5.28875 30.68707031 5.5775 31.37414062 5.875 32.08203125 C6.431875 33.43361328 6.431875 33.43361328 7 34.8125 C7.37125 35.70582031 7.7425 36.59914062 8.125 37.51953125 C9 40 9 40 9 43 C-4.86 42.505 -4.86 42.505 -19 42 C-20 39 -20 39 -18.5625 35.8125 C-18.046875 34.884375 -17.53125 33.95625 -17 33 C-16.34 33 -15.68 33 -15 33 C-14.87625 32.21625 -14.7525 31.4325 -14.625 30.625 C-14 28 -14 28 -12 26 C-11.25579223 24.33123328 -10.51694358 22.6595972 -9.82080078 20.97021484 C-8.46038982 17.70474296 -6.93994132 14.51447708 -5.4375 11.3125 C-4.98213867 10.33700195 -4.98213867 10.33700195 -4.51757812 9.34179688 C-3.05101509 6.20737784 -1.56949435 3.08432969 0 0 Z " fill="#D4D4D4" transform="translate(60,45)"/>
<path d="M0 0 C0.99 0 1.98 0 3 0 C5.98602245 9.60824966 4.2380744 20.72908461 1 30 C0.34 30 -0.32 30 -1 30 C-0.67 30.99 -0.34 31.98 0 33 C-0.33 33.66 -0.66 34.32 -1 35 C-2.485 35.495 -2.485 35.495 -4 36 C-3.505 36.495 -3.505 36.495 -3 37 C-2.75 39.4375 -2.75 39.4375 -3 42 C-3.99 42.66 -4.98 43.32 -6 44 C-6.23074219 43.33613281 -6.46148437 42.67226562 -6.69921875 41.98828125 C-9.25391199 35.07142406 -11.65074359 30.832612 -18.3125 27.1875 C-19.199375 26.795625 -20.08625 26.40375 -21 26 C-21 25.67 -21 25.34 -21 25 C-19.02 25 -17.04 25 -15 25 C-14.67 23.68 -14.34 22.36 -14 21 C-13.34 21.33 -12.68 21.66 -12 22 C-12.33 22.99 -12.66 23.98 -13 25 C-11.35 25 -9.7 25 -8 25 C-8.185625 24.236875 -8.37125 23.47375 -8.5625 22.6875 C-9 20 -9 20 -8 17 C-9.65 17 -11.3 17 -13 17 C-13.33 16.01 -13.66 15.02 -14 14 C-16.8754593 13.26059618 -18.70408328 12.92954364 -21.625 13.625 C-22.800625 13.810625 -22.800625 13.810625 -24 14 C-25.625 12.6875 -25.625 12.6875 -27 11 C-27.99 10.34 -28.98 9.68 -30 9 C-29.67 8.34 -29.34 7.68 -29 7 C-28.32066406 7.48855469 -27.64132813 7.97710937 -26.94140625 8.48046875 C-23.36722221 10.32689318 -20.94092007 10.36816253 -16.9375 10.3125 C-15.72964844 10.30863281 -14.52179688 10.30476563 -13.27734375 10.30078125 C-9.41190621 9.94602715 -7.18137992 9.23060408 -4.5 6.4375 C-2.72539815 4.73683989 -1.38993744 4.41205818 1 4 C0.34 3.67 -0.32 3.34 -1 3 C-0.67 2.01 -0.34 1.02 0 0 Z " fill="#E0E0E0" transform="translate(123,61)"/>
<path d="M0 0 C0 0.66 0 1.32 0 2 C0.8971875 2.37125 0.8971875 2.37125 1.8125 2.75 C4.31626919 4.18072525 5.48072388 5.5691582 7 8 C7 8.66 7 9.32 7 10 C7.66 10 8.32 10 9 10 C10.5078125 12.1171875 10.5078125 12.1171875 12.125 14.875 C12.66382813 15.77992187 13.20265625 16.68484375 13.7578125 17.6171875 C15 20 15 20 15 22 C12.87506859 22.02693575 10.75004088 22.04636628 8.625 22.0625 C6.84996094 22.07990234 6.84996094 22.07990234 5.0390625 22.09765625 C2 22 2 22 0 21 C-0.66 22.32 -1.32 23.64 -2 25 C-2.33 24.34 -2.66 23.68 -3 23 C-8.26296017 23.18479039 -8.26296017 23.18479039 -12.75 25.4375 C-13.1625 25.953125 -13.575 26.46875 -14 27 C-17.68593109 29.12220275 -19.69108615 29 -24 29 C-24.66 28.01 -25.32 27.02 -26 26 C-25.505 24.515 -25.505 24.515 -25 23 C-24.34 23.66 -23.68 24.32 -23 25 C-19.91652174 25.16681109 -19.91652174 25.16681109 -17 25 C-16.67 23.68 -16.34 22.36 -16 21 C-16.66 21 -17.32 21 -18 21 C-18 20.34 -18 19.68 -18 19 C-14.92382812 18.70703125 -14.92382812 18.70703125 -11.84765625 18.4140625 C-11.23792969 18.27742188 -10.62820312 18.14078125 -10 18 C-9.67 17.34 -9.34 16.68 -9 16 C-10.32 16 -11.64 16 -13 16 C-12.67 14.68 -12.34 13.36 -12 12 C-8.7 12 -5.4 12 -2 12 C-1.67 10.35 -1.34 8.7 -1 7 C-1.66 7 -2.32 7 -3 7 C-3.33 5.68 -3.66 4.36 -4 3 C-4.99 3.66 -5.98 4.32 -7 5 C-7 3.68 -7 2.36 -7 1 C-3.375 -1.125 -3.375 -1.125 0 0 Z " fill="#E9E9E9" transform="translate(103,13)"/>
<path d="M0 0 C5.39533074 2.77083893 9.59276038 6.72308928 12.0625 12.3125 C12.60316369 17.98946875 12.16299582 21.37467333 9.0625 26.3125 C6.23526388 29.72874365 3.80112448 30.23738565 -0.625 30.6875 C-5.61511198 30.604943 -9.28076018 28.63349125 -12.9375 25.3125 C-17.80562439 20.09984256 -18.809209 15.35861644 -19.25 8.375 C-19.32283203 7.50037109 -19.39566406 6.62574219 -19.47070312 5.72460938 C-19.64577387 3.58874634 -19.79438092 1.45074171 -19.9375 -0.6875 C-13.52743882 -2.82418706 -6.24166928 -2.60156972 0 0 Z M-10.9375 4.3125 C-11.2675 5.3025 -11.5975 6.2925 -11.9375 7.3125 C-12.5975 7.3125 -13.2575 7.3125 -13.9375 7.3125 C-15.43340709 10.30431417 -15.36493011 11.9541206 -14.9375 15.3125 C-12.50994013 20.01737987 -10.09636161 24.43126099 -4.9375 26.3125 C-0.69051883 26.95552884 2.87170769 27.05674519 6.5625 24.75 C8.63794582 21.37740055 9.12891073 19.29714351 9.0625 15.3125 C7.27126308 10.65014169 5.02618787 7.89434928 0.75 5.3125 C-3.43051063 4.1788022 -6.63167155 4.08587745 -10.9375 4.3125 Z " fill="#1C1C1C" transform="translate(103.9375,86.6875)"/>
<path d="M0 0 C0.99 0 1.98 0 3 0 C3.66 0.66 4.32 1.32 5 2 C5.66 1.34 6.32 0.68 7 0 C7.1953125 2.05078125 7.390625 4.1015625 7.5859375 6.15234375 C7.72257812 6.76207031 7.85921875 7.37179688 8 8 C8.66 8.33 9.32 8.66 10 9 C10.474375 10.134375 10.94875 11.26875 11.4375 12.4375 C12.70190988 16.19068113 12.70190988 16.19068113 16 18 C16 18.66 16 19.32 16 20 C16.66 20 17.32 20 18 20 C18 21.32 18 22.64 18 24 C18.66 24.33 19.32 24.66 20 25 C20 25.66 20 26.32 20 27 C17.04518508 29.74375671 16.22528092 30 12 30 C12 29.01 12 28.02 12 27 C10.35 27.33 8.7 27.66 7 28 C7 28.66 7 29.32 7 30 C7.66 30 8.32 30 9 30 C9 30.99 9 31.98 9 33 C8.34 33 7.68 33 7 33 C7.33 35.31 7.66 37.62 8 40 C7.01 39.67 6.02 39.34 5 39 C4.67 39.66 4.34 40.32 4 41 C4 40.34 4 39.68 4 39 C3.01 38.67 2.02 38.34 1 38 C0.67 36.35 0.34 34.7 0 33 C1.32 33 2.64 33 4 33 C4 32.34 4 31.68 4 31 C3.01 30.67 2.02 30.34 1 30 C1.66 29.34 2.32 28.68 3 28 C2.84660156 27.38640625 2.69320312 26.7728125 2.53515625 26.140625 C1.86619103 23.46476413 2.38918038 22.26596708 3.4375 19.75 C3.72496094 19.04359375 4.01242188 18.3371875 4.30859375 17.609375 C4.53675781 17.07828125 4.76492187 16.5471875 5 16 C3.35 16 1.7 16 0 16 C0.33 14.35 0.66 12.7 1 11 C0.34 11 -0.32 11 -1 11 C-1 10.34 -1 9.68 -1 9 C-1.66 9 -2.32 9 -3 9 C-3.33 8.01 -3.66 7.02 -4 6 C-4.66 6 -5.32 6 -6 6 C-5.67 5.01 -5.34 4.02 -5 3 C-3.68 3 -2.36 3 -1 3 C-1 3.66 -1 4.32 -1 5 C-0.01 5 0.98 5 2 5 C1.34 3.35 0.68 1.7 0 0 Z M5 14 C6 16 6 16 6 16 Z " fill="#EEEEEE" transform="translate(67,40)"/>
<path d="M0 0 C-0.33 0.66 -0.66 1.32 -1 2 C-1.99 1.67 -2.98 1.34 -4 1 C-4.33 2.32 -4.66 3.64 -5 5 C-4.01 5.66 -3.02 6.32 -2 7 C-2 7.66 -2 8.32 -2 9 C-3.32 9.33 -4.64 9.66 -6 10 C-6 13.3 -6 16.6 -6 20 C-6.99 20.33 -7.98 20.66 -9 21 C-8.814375 21.61875 -8.62875 22.2375 -8.4375 22.875 C-8 25 -8 25 -9 27 C-10.875 26.875 -10.875 26.875 -13 26 C-14.25 22.9375 -14.25 22.9375 -15 20 C-15 21.32 -15 22.64 -15 24 C-16.32 23.67 -17.64 23.34 -19 23 C-17.125 16.25 -17.125 16.25 -16 14 C-16.66 14 -17.32 14 -18 14 C-18.66 16.31 -19.32 18.62 -20 21 C-21.32 21 -22.64 21 -24 21 C-24 20.01 -24 19.02 -24 18 C-24.66 18 -25.32 18 -26 18 C-26 18.66 -26 19.32 -26 20 C-26.66 20 -27.32 20 -28 20 C-27.67 18.68 -27.34 17.36 -27 16 C-25.02 15.67 -23.04 15.34 -21 15 C-20.67 13.02 -20.34 11.04 -20 9 C-21.65 9.33 -23.3 9.66 -25 10 C-24.67 8.68 -24.34 7.36 -24 6 C-22.68 6 -21.36 6 -20 6 C-19.67 5.01 -19.34 4.02 -19 3 C-18.67 3.66 -18.34 4.32 -18 5 C-14.56769552 4.73606499 -14.56769552 4.73606499 -11 4 C-10.34 3.01 -9.68 2.02 -9 1 C-5.62745872 -0.77502172 -3.61207747 -1.33780647 0 0 Z " fill="#DEDEDE" transform="translate(91,8)"/>
<path d="M0 0 C2.07732941 2.07732941 2.99860765 3.83111419 4.3125 6.4375 C6.37186496 10.19991751 7.89374094 12.35749638 12 14 C14.69254991 14.70670728 14.69254991 14.70670728 17 15 C16 18 16 18 14 19 C14.99 19.66 15.98 20.32 17 21 C16 22 16 22 13.4375 22.0625 C12.633125 22.041875 11.82875 22.02125 11 22 C11.33 20.68 11.66 19.36 12 18 C11.34 18 10.68 18 10 18 C9.505 19.485 9.505 19.485 9 21 C8.278125 20.773125 7.55625 20.54625 6.8125 20.3125 C3.24415308 19.91601701 1.86128901 20.95622213 -1 23 C-1 21 -1 21 1 19 C0.34 18.67 -0.32 18.34 -1 18 C-0.34 17.34 0.32 16.68 1 16 C0.34 15.67 -0.32 15.34 -1 15 C-1 15.66 -1 16.32 -1 17 C-1.66 16.67 -2.32 16.34 -3 16 C-2.67 15.34 -2.34 14.68 -2 14 C-2.47050781 14.37253906 -2.94101563 14.74507812 -3.42578125 15.12890625 C-4.04839844 15.60199219 -4.67101562 16.07507813 -5.3125 16.5625 C-5.92738281 17.03816406 -6.54226562 17.51382813 -7.17578125 18.00390625 C-7.77777344 18.33261719 -8.37976563 18.66132812 -9 19 C-9.99 18.67 -10.98 18.34 -12 18 C-10.02 16.68 -8.04 15.36 -6 14 C-10.03002063 15.34334021 -13.51315214 17.45434287 -17.2109375 19.52734375 C-19.76454507 20.87567716 -22.29991718 21.98378701 -25 23 C-25 22.34 -25 21.68 -25 21 C-20.05 18.36 -15.1 15.72 -10 13 C-13.62114435 14.20704812 -16.58556472 16.07329072 -19.84375 18.0390625 C-22 19 -22 19 -25 18 C-22.37532366 16.5202565 -19.75027507 15.04118057 -17.125 13.5625 C-16.37863281 13.14162109 -15.63226563 12.72074219 -14.86328125 12.28710938 C-13.79013672 11.68286133 -13.79013672 11.68286133 -12.6953125 11.06640625 C-11.7055542 10.5086853 -11.7055542 10.5086853 -10.69580078 9.93969727 C-9.47885349 9.26534798 -8.24441397 8.62220698 -7 8 C-6.34 8.33 -5.68 8.66 -5 9 C-4.67 8.01 -4.34 7.02 -4 6 C-3.01 6 -2.02 6 -1 6 C-1.99 5.67 -2.98 5.34 -4 5 C-3 2 -3 2 0 0 Z " fill="#B9B9B9" transform="translate(82,107)"/>
<path d="M0 0 C1.65 0 3.3 0 5 0 C5.66 1.32 6.32 2.64 7 4 C6.21625 4.4125 5.4325 4.825 4.625 5.25 C1.94108344 7.0392777 1.11901051 8.04988139 0 11 C0.99 11.33 1.98 11.66 3 12 C3.6875 14.0625 3.6875 14.0625 4 16 C2.68 16 1.36 16 0 16 C-0.33 17.65 -0.66 19.3 -1 21 C-1.66 20.67 -2.32 20.34 -3 20 C-4.32860925 19.64830932 -5.66158328 19.31229724 -7 19 C-6.67 19.99 -6.34 20.98 -6 22 C-6.66 22 -7.32 22 -8 22 C-8.33 22.66 -8.66 23.32 -9 24 C-9.66 24 -10.32 24 -11 24 C-10.67 24.99 -10.34 25.98 -10 27 C-11.32 27 -12.64 27 -14 27 C-13.67 27.66 -13.34 28.32 -13 29 C-13.99 29 -14.98 29 -16 29 C-16 28.01 -16 27.02 -16 26 C-16.66 26 -17.32 26 -18 26 C-18 25.34 -18 24.68 -18 24 C-17.34 24 -16.68 24 -16 24 C-16 22.35 -16 20.7 -16 19 C-15.34 19 -14.68 19 -14 19 C-13.97421875 18.41992188 -13.9484375 17.83984375 -13.921875 17.2421875 C-13.51432849 11.6291606 -12.50635789 8.41122445 -9 4 C-7.35 4.33 -5.7 4.66 -4 5 C-4.33 6.98 -4.66 8.96 -5 11 C-4.34 11 -3.68 11 -3 11 C-2.67 8.03 -2.34 5.06 -2 2 C-1.34 2 -0.68 2 0 2 C0 1.34 0 0.68 0 0 Z " fill="#F2F2F2" transform="translate(62,57)"/>
<path d="M0 0 C3.65884082 1.21961361 3.84713492 2.11613003 5.6875 5.375 C8.3398347 9.53164394 10.38436745 11.23408493 15.09765625 12.58203125 C15.72542969 12.71996094 16.35320312 12.85789062 17 13 C17.99 13.226875 18.98 13.45375 20 13.6875 C20.66 13.790625 21.32 13.89375 22 14 C21.525625 14.433125 21.05125 14.86625 20.5625 15.3125 C18.76313043 17.02309613 18.76313043 17.02309613 18 20 C18.99 19.67 19.98 19.34 21 19 C20 22 20 22 18 24 C17.30251417 25.31747324 16.63040043 26.64914193 16 28 C15.34 27.67 14.68 27.34 14 27 C14.33 26.34 14.66 25.68 15 25 C14.32453125 25.49371094 13.6490625 25.98742187 12.953125 26.49609375 C12.06109375 27.13675781 11.1690625 27.77742188 10.25 28.4375 C9.36828125 29.07558594 8.4865625 29.71367187 7.578125 30.37109375 C5.27300875 31.8275081 3.65650428 32.55931821 1 33 C1 32.34 1 31.68 1 31 C-0.98 31.66 -2.96 32.32 -5 33 C-5 32.34 -5 31.68 -5 31 C-5.94875 31.515625 -6.8975 32.03125 -7.875 32.5625 C-8.90625 33.036875 -9.9375 33.51125 -11 34 C-11.66 33.67 -12.32 33.34 -13 33 C-1.76953125 26.26171875 -1.76953125 26.26171875 0.18896484 25.09130859 C1.75711705 24.14635842 3.3115519 23.17871443 4.86328125 22.20703125 C7 21 7 21 9 21 C9.33 20.34 9.66 19.68 10 19 C10.66 19 11.32 19 12 19 C11.67 20.32 11.34 21.64 11 23 C12.65 22.67 14.3 22.34 16 22 C15.01 21.01 14.02 20.02 13 19 C13.66 19 14.32 19 15 19 C15.33 18.34 15.66 17.68 16 17 C16.33 16.67 16.66 16.34 17 16 C15.948125 15.9175 14.89625 15.835 13.8125 15.75 C9.46191622 14.89414745 7.99759232 14.23424434 5 11 C0 2.34986226 0 2.34986226 0 0 Z " fill="#5E5E5E" transform="translate(82,106)"/>
<path d="M0 0 C0.268125 0.639375 0.53625 1.27875 0.8125 1.9375 C1.88667752 4.33131686 1.88667752 4.33131686 5 5 C4.34 5 3.68 5 3 5 C3.33 5.99 3.66 6.98 4 8 C4.66 8.33 5.32 8.66 6 9 C6 10.32 6 11.64 6 13 C6.99 13 7.98 13 9 13 C9 12.34 9 11.68 9 11 C9.66 11 10.32 11 11 11 C11 10.34 11 9.68 11 9 C10.01 9.33 9.02 9.66 8 10 C8.33 9.01 8.66 8.02 9 7 C9.66 7 10.32 7 11 7 C11.33 6.34 11.66 5.68 12 5 C13.04976964 8.14930893 13.10131595 10.38814456 13.0625 13.6875 C13.05347656 14.68136719 13.04445313 15.67523438 13.03515625 16.69921875 C13.02355469 17.45847656 13.01195313 18.21773437 13 19 C8.25 21 8.25 21 6 21 C5.67 21.66 5.34 22.32 5 23 C5.66 23 6.32 23 7 23 C6.67 23.66 6.34 24.32 6 25 C5.01 25 4.02 25 3 25 C3 25.66 3 26.32 3 27 C2.34 27 1.68 27 1 27 C1.33 25.02 1.66 23.04 2 21 C0.68 21.99 -0.64 22.98 -2 24 C-2.33 23.01 -2.66 22.02 -3 21 C-3.66 21 -4.32 21 -5 21 C-5 20.34 -5 19.68 -5 19 C-3.68 19 -2.36 19 -1 19 C-1.66 18.67 -2.32 18.34 -3 18 C-3 17.34 -3 16.68 -3 16 C-4.65 16.33 -6.3 16.66 -8 17 C-8 15.68 -8 14.36 -8 13 C-7.030625 12.525625 -6.06125 12.05125 -5.0625 11.5625 C-2.19522563 10.29806053 -2.19522563 10.29806053 -1 9 C-0.76807135 7.48530552 -0.58784762 5.96245438 -0.4375 4.4375 C-0.35371094 3.61121094 -0.26992187 2.78492187 -0.18359375 1.93359375 C-0.12300781 1.29550781 -0.06242187 0.65742187 0 0 Z " fill="#DDDDDD" transform="translate(72,81)"/>
<path d="M0 0 C3.81514505 0.93568521 5.56844286 2.60620067 7.7734375 5.7890625 C8.67578125 7.65625 8.67578125 7.65625 8.86328125 10.21875 C6.40223608 15.27036904 2.92838101 19.50745919 -2.32421875 21.65625 C-5.34286421 21.8853209 -8.30404973 21.833907 -11.32421875 21.65625 C-11.32421875 20.66625 -11.32421875 19.67625 -11.32421875 18.65625 C-10.62554687 18.54667969 -9.926875 18.43710937 -9.20703125 18.32421875 C-8.29695313 18.16566406 -7.386875 18.00710937 -6.44921875 17.84375 C-5.54429688 17.69292969 -4.639375 17.54210937 -3.70703125 17.38671875 C-0.98009397 16.82573699 -0.98009397 16.82573699 0.67578125 13.65625 C1.04745309 10.89604004 0.85428761 8.46772524 0.67578125 5.65625 C0.01578125 4.99625 -0.64421875 4.33625 -1.32421875 3.65625 C-4.92100941 3.97951553 -4.92100941 3.97951553 -8.32421875 4.65625 C-8.65421875 6.63625 -8.98421875 8.61625 -9.32421875 10.65625 C-8.00421875 11.31625 -6.68421875 11.97625 -5.32421875 12.65625 C-5.65421875 10.34625 -5.98421875 8.03625 -6.32421875 5.65625 C-5.00421875 5.98625 -3.68421875 6.31625 -2.32421875 6.65625 C-1.96541476 12.0383098 -1.96541476 12.0383098 -3.44921875 14.59375 C-5.32421875 15.65625 -5.32421875 15.65625 -8.38671875 15.46875 C-11.32421875 14.65625 -11.32421875 14.65625 -13.32421875 12.65625 C-13.95788763 8.67318845 -13.43308063 6.85895833 -11.51171875 3.28125 C-8.25236942 -0.22953485 -4.58544113 -0.24819708 0 0 Z " fill="#B4B4B4" transform="translate(43.32421875,35.34375)"/>
<path d="M0 0 C0.33 0.66 0.66 1.32 1 2 C2.32 2 3.64 2 5 2 C5.33 2.66 5.66 3.32 6 4 C8.52733235 4.65555119 8.52733235 4.65555119 11 5 C11.33 7.97 11.66 10.94 12 14 C10.02 14 8.04 14 6 14 C5.67 12.68 5.34 11.36 5 10 C4.67 10.99 4.34 11.98 4 13 C0.625 13.125 0.625 13.125 -3 13 C-3.66 12.34 -4.32 11.68 -5 11 C-7.68839385 10.73008094 -10.29141936 10.91262643 -13 11 C-12.6875 9.125 -12.6875 9.125 -12 7 C-11.01 6.34 -10.02 5.68 -9 5 C-9.66 4.67 -10.32 4.34 -11 4 C-10.67 3.34 -10.34 2.68 -10 2 C-7.71484375 1.3671875 -7.71484375 1.3671875 -4.9375 0.875 C-4.01839844 0.70742187 -3.09929687 0.53984375 -2.15234375 0.3671875 C-1.44207031 0.24601562 -0.73179688 0.12484375 0 0 Z " fill="#F0F0F0" transform="translate(104,73)"/>
<path d="M0 0 C1 1 1 1 1.0625 4.0625 C1.041875 5.031875 1.02125 6.00125 1 7 C-15 3 -15 3 -17.02734375 2.45898438 C-20.07436587 1.75002378 -23.13234947 1.63956994 -26.25 1.4375 C-27.51328125 1.35371094 -28.7765625 1.26992188 -30.078125 1.18359375 C-31.04234375 1.12300781 -32.0065625 1.06242187 -33 1 C-32.375 -0.875 -32.375 -0.875 -31 -3 C-20.45329346 -7.70244893 -9.81233765 -5.15993618 0 0 Z " fill="#C1C1C1" transform="translate(123,48)"/>
<path d="M0 0 C3.33388318 0.16951948 4.94441987 0.43192871 7.6875 2.1875 C6.0375 3.1775 4.3875 4.1675 2.6875 5.1875 C2.0275 4.5275 1.3675 3.8675 0.6875 3.1875 C-1.42070797 3.5060177 -1.42070797 3.5060177 -3.3125 4.1875 C-3.6425 5.8375 -3.9725 7.4875 -4.3125 9.1875 C-5.3025 8.8575 -6.2925 8.5275 -7.3125 8.1875 C-7.3125 6.5375 -7.3125 4.8875 -7.3125 3.1875 C-9.26249129 3.38221111 -9.26249129 3.38221111 -11.3125 4.1875 C-12.59686734 6.1712767 -12.59686734 6.1712767 -13.3125 8.1875 C-14.3025 8.1875 -15.2925 8.1875 -16.3125 8.1875 C-16.3125 8.5175 -16.3125 8.8475 -16.3125 9.1875 C-17.3025 9.6825 -17.3025 9.6825 -18.3125 10.1875 C-18.3125 10.8475 -18.3125 11.5075 -18.3125 12.1875 C-19.6325 12.1875 -20.9525 12.1875 -22.3125 12.1875 C-22.3125 12.8475 -22.3125 13.5075 -22.3125 14.1875 C-22.9725 14.1875 -23.6325 14.1875 -24.3125 14.1875 C-24.6425 14.8475 -24.9725 15.5075 -25.3125 16.1875 C-23.33713255 15.83963292 -23.33713255 15.83963292 -21.3125 15.1875 C-20.9825 14.5275 -20.6525 13.8675 -20.3125 13.1875 C-18.9925 13.1875 -17.6725 13.1875 -16.3125 13.1875 C-16.6425 14.1775 -16.9725 15.1675 -17.3125 16.1875 C-18.3025 16.1875 -19.2925 16.1875 -20.3125 16.1875 C-20.3125 16.8475 -20.3125 17.5075 -20.3125 18.1875 C-21.6325 17.8575 -22.9525 17.5275 -24.3125 17.1875 C-24.6425 18.1775 -24.9725 19.1675 -25.3125 20.1875 C-25.9725 19.8575 -26.6325 19.5275 -27.3125 19.1875 C-27.3125 20.1775 -27.3125 21.1675 -27.3125 22.1875 C-30.60226808 23.28408936 -32.02553767 22.98703138 -35.3125 22.1875 C-33.81842885 17.4562747 -33.81842885 17.4562747 -31.3125 16.125 C-30.6525 15.815625 -29.9925 15.50625 -29.3125 15.1875 C-29.03019531 14.58164062 -28.74789062 13.97578125 -28.45703125 13.3515625 C-26.11902298 8.93089157 -21.61726473 6.49043761 -17.3125 4.1875 C-13.85370355 3.12295931 -10.45956139 2.35113559 -6.90234375 1.6953125 C-3.5904824 1.04592792 -3.60579278 0.20410148 0 0 Z " fill="#A8A8A8" transform="translate(73.3125,2.8125)"/>
<path d="M0 0 C0 0.99 0 1.98 0 3 C-0.33 3.33 -0.66 3.66 -1 4 C0.65 3.34 2.3 2.68 4 2 C4.33 2.33 4.66 2.66 5 3 C5.99 3.33 6.98 3.66 8 4 C8 4.33 8 4.66 8 5 C8.66 5.33 9.32 5.66 10 6 C8.625 7.5 8.625 7.5 7 9 C6.34 9 5.68 9 5 9 C5 9.99 5 10.98 5 12 C0.01498435 15.94187354 -5.74492416 18.87408635 -12 20 C-14.4375 19.625 -14.4375 19.625 -16 19 C-16 18.34 -16 17.68 -16 17 C-15.29875 16.69707031 -14.5975 16.39414063 -13.875 16.08203125 C-7.91151517 13.44869896 -2.43972222 10.59226939 3 7 C2.34773438 7.33773437 1.69546875 7.67546875 1.0234375 8.0234375 C-3.57761806 10.3714688 -8.01772085 12.5577613 -13 14 C-13 13.34 -13 12.68 -13 12 C-14.32 12.33 -15.64 12.66 -17 13 C-14.47043472 9.9083091 -11.77545388 9.09068668 -8 8 C-8 7.01 -8 6.02 -8 5 C-6.25 3.61328125 -6.25 3.61328125 -4 2.3125 C-3.2575 1.87550781 -2.515 1.43851562 -1.75 0.98828125 C-1.1725 0.66214844 -0.595 0.33601563 0 0 Z " fill="#393939" transform="translate(76,119)"/>
<path d="M0 0 C0.66 0.33 1.32 0.66 2 1 C0.02 2.65 -1.96 4.3 -4 6 C-3.401875 5.690625 -2.80375 5.38125 -2.1875 5.0625 C0 4 0 4 3 3 C3 3.66 3 4.32 3 5 C-1.62 7.64 -6.24 10.28 -11 13 C-9.1025 12.05125 -7.205 11.1025 -5.25 10.125 C-1.83333333 8.41666667 1.58333333 6.70833333 5 5 C3.53426802 8.78306242 1.66597502 10.1328299 -1.8125 12.125 C-2.66457031 12.62257813 -3.51664063 13.12015625 -4.39453125 13.6328125 C-7 15 -7 15 -9.7265625 16.07421875 C-12.07703629 16.84436489 -12.07703629 16.84436489 -13.5625 18.6875 C-14.036875 19.120625 -14.51125 19.55375 -15 20 C-17.1875 19.6875 -17.1875 19.6875 -19 19 C-17.35 18.67 -15.7 18.34 -14 18 C-17.27275026 18 -19.846632 18.29925156 -23 19 C-23 18.34 -23 17.68 -23 17 C-24.32 17.33 -25.64 17.66 -27 18 C-24.81482901 15.59424393 -22.74080329 14.20464419 -19.8125 12.8125 C-19.09707031 12.46832031 -18.38164063 12.12414062 -17.64453125 11.76953125 C-17.10183594 11.51558594 -16.55914062 11.26164062 -16 11 C-17.32 10.67 -18.64 10.34 -20 10 C-13.33333333 6.66666667 -6.66666667 3.33333333 0 0 Z " fill="#202020" transform="translate(70,108)"/>
<path d="M0 0 C0.33 1.32 0.66 2.64 1 4 C0.34 4 -0.32 4 -1 4 C-1 5.65 -1 7.3 -1 9 C-1.66 9 -2.32 9 -3 9 C-3 9.66 -3 10.32 -3 11 C-2.34 11 -1.68 11 -1 11 C-1 11.99 -1 12.98 -1 14 C-0.34 13.67 0.32 13.34 1 13 C0.67 12.34 0.34 11.68 0 11 C1.32 11 2.64 11 4 11 C4 10.34 4 9.68 4 9 C3.34 8.67 2.68 8.34 2 8 C3.65 7.67 5.3 7.34 7 7 C7.33 6.01 7.66 5.02 8 4 C9.9375 3.1875 9.9375 3.1875 12 3 C12.66 3.66 13.32 4.32 14 5 C14.33 4.01 14.66 3.02 15 2 C15.66 2 16.32 2 17 2 C17.33 4.64 17.66 7.28 18 10 C18.66 10 19.32 10 20 10 C20 10.66 20 11.32 20 12 C19.34 12 18.68 12 18 12 C18 12.66 18 13.32 18 14 C17.030625 13.979375 16.06125 13.95875 15.0625 13.9375 C12.12534105 13.64381501 12.12534105 13.64381501 11 15 C8.13732433 15.07325168 5.299281 15.09238205 2.4375 15.0625 C1.63119141 15.05798828 0.82488281 15.05347656 -0.00585938 15.04882812 C-2.00393756 15.03700518 -4.00197783 15.01906914 -6 15 C-7 12 -7 12 -5.5625 8.8125 C-5.046875 7.884375 -4.53125 6.95625 -4 6 C-3.34 6 -2.68 6 -2 6 C-1.855625 5.195625 -1.71125 4.39125 -1.5625 3.5625 C-1 1 -1 1 0 0 Z " fill="#EBEBEB" transform="translate(47,72)"/>
<path d="M0 0 C1.875 1.0625 1.875 1.0625 3 3 C3.46637117 5.75792334 3.50495465 8.24570188 3 11 C0.73077752 13.90460477 -0.84995463 13.97856495 -4.5 14.5 C-8 14 -8 14 -10.5 11.9375 C-12.47651731 8.06682027 -12.29610706 6.11704596 -11 2 C-7.3487558 -1.33828041 -4.64215415 -1.41282953 0 0 Z " fill="#2B2B2B" transform="translate(105,96)"/>
<path d="M0 0 C2.3125 -0.25 2.3125 -0.25 5 0 C6.97610386 2.04424538 8 3.1176825 8 6 C12.455 5.505 12.455 5.505 17 5 C17 4.34 17 3.68 17 3 C18.45823212 2.9729957 19.91660675 2.95360213 21.375 2.9375 C22.18710938 2.92589844 22.99921875 2.91429687 23.8359375 2.90234375 C26 3 26 3 28 4 C27.9375 5.8125 27.9375 5.8125 27 8 C22.34901872 10.61617697 18.20731624 11.40670003 12.91796875 11.7890625 C10.91719347 11.89692242 10.91719347 11.89692242 9 13 C5.06585805 11.91471946 3.25001625 8.99249211 0.953125 5.8515625 C0 4 0 4 0 0 Z " fill="#D9D9D9" transform="translate(91,54)"/>
<path d="M0 0 C0 3.33333333 0 6.66666667 0 10 C-0.66 10 -1.32 10 -2 10 C-1.67 10.99 -1.34 11.98 -1 13 C-1.33 13.66 -1.66 14.32 -2 15 C-2.99 15.33 -3.98 15.66 -5 16 C-4.67 16.33 -4.34 16.66 -4 17 C-3.75 19.4375 -3.75 19.4375 -4 22 C-4.99 22.66 -5.98 23.32 -7 24 C-7.23074219 23.33613281 -7.46148437 22.67226562 -7.69921875 21.98828125 C-10.25391199 15.07142406 -12.65074359 10.832612 -19.3125 7.1875 C-20.199375 6.795625 -21.08625 6.40375 -22 6 C-22 5.67 -22 5.34 -22 5 C-20.02 5 -18.04 5 -16 5 C-15.67 3.68 -15.34 2.36 -15 1 C-14.34 1.33 -13.68 1.66 -13 2 C-13.33 2.99 -13.66 3.98 -14 5 C-10.65747276 5.07427838 -8.1964086 5.06546953 -5 4 C-4.01 4.33 -3.02 4.66 -2 5 C-2 3.68 -2 2.36 -2 1 C-1.34 0.67 -0.68 0.34 0 0 Z " fill="#BBBBBB" transform="translate(124,81)"/>
<path d="M0 0 C0.66 0 1.32 0 2 0 C2.20741408 3.73345342 1.68183182 5.72226938 0 9 C-0.43672535 10.36876115 -0.85260495 11.74430695 -1.25 13.125 C-3.37530307 19.70799003 -7.18869659 25.28304488 -11 31 C-11.66 31 -12.32 31 -13 31 C-13.020625 31.5775 -13.04125 32.155 -13.0625 32.75 C-14.60679013 36.4562963 -17.4367181 37.31212963 -21 39 C-21.66 38.67 -22.32 38.34 -23 38 C-22.01 37.01 -21.02 36.02 -20 35 C-20.66 35 -21.32 35 -22 35 C-21.125 31.125 -21.125 31.125 -20 30 C-20.99 29.34 -21.98 28.68 -23 28 C-22.34 28 -21.68 28 -21 28 C-21 27.34 -21 26.68 -21 26 C-20.07767578 25.83564453 -20.07767578 25.83564453 -19.13671875 25.66796875 C-18.32847656 25.50941406 -17.52023438 25.35085937 -16.6875 25.1875 C-15.88699219 25.03667969 -15.08648437 24.88585937 -14.26171875 24.73046875 C-11.66370279 23.89138588 -10.64911249 23.15955207 -9 21 C-8.00626561 18.7396956 -8.00626561 18.7396956 -7.3125 16.3125 C-7.06113281 15.50425781 -6.80976562 14.69601563 -6.55078125 13.86328125 C-6.36902344 13.24839844 -6.18726562 12.63351563 -6 12 C-5.01 12 -4.02 12 -3 12 C-2.67 10.35 -2.34 8.7 -2 7 C-2.66 6.67 -3.32 6.34 -4 6 C-2.68 5.67 -1.36 5.34 0 5 C0 3.35 0 1.7 0 0 Z " fill="#686868" transform="translate(122,91)"/>
<path d="M0 0 C0.99 0 1.98 0 3 0 C3.66 0.66 4.32 1.32 5 2 C5.66 1.34 6.32 0.68 7 0 C7.1953125 2.05078125 7.390625 4.1015625 7.5859375 6.15234375 C7.72257812 6.76207031 7.85921875 7.37179688 8 8 C8.66 8.33 9.32 8.66 10 9 C10.73075648 11.3140622 11.40138258 13.64828869 12 16 C11.34 16.33 10.68 16.66 10 17 C10 17.66 10 18.32 10 19 C10.66 19 11.32 19 12 19 C11.67 20.32 11.34 21.64 11 23 C11 22.01 11 21.02 11 20 C9.02 20.33 7.04 20.66 5 21 C4.67 20.34 4.34 19.68 4 19 C4.33 18.01 4.66 17.02 5 16 C3.35 16 1.7 16 0 16 C0.33 14.35 0.66 12.7 1 11 C0.34 11 -0.32 11 -1 11 C-1 10.34 -1 9.68 -1 9 C-1.66 9 -2.32 9 -3 9 C-3.33 8.01 -3.66 7.02 -4 6 C-4.66 6 -5.32 6 -6 6 C-5.67 5.01 -5.34 4.02 -5 3 C-3.68 3 -2.36 3 -1 3 C-1 3.66 -1 4.32 -1 5 C-0.01 5 0.98 5 2 5 C1.34 3.35 0.68 1.7 0 0 Z M5 14 C6 16 6 16 6 16 Z " fill="#E5E5E5" transform="translate(67,40)"/>
<path d="M0 0 C0 3 0 3 -1.4375 4.625 C-1.953125 5.07875 -2.46875 5.5325 -3 6 C-3.33 6.33 -3.66 6.66 -4 7 C-3.34 7.33 -2.68 7.66 -2 8 C-3.15173355 10.46800047 -4.04783565 12.04783565 -6 14 C-6.33 14.99 -6.66 15.98 -7 17 C-7.66 17.33 -8.32 17.66 -9 18 C-9.33 18.99 -9.66 19.98 -10 21 C-13.0625 22.1875 -13.0625 22.1875 -16 23 C-15.01 22.01 -14.02 21.02 -13 20 C-16.96 20.495 -16.96 20.495 -21 21 C-19.03617993 19.49440461 -17.21736634 18.10868317 -15 17 C-15.99 16.67 -16.98 16.34 -18 16 C-17.34 15.67 -16.68 15.34 -16 15 C-20.455 15.495 -20.455 15.495 -25 16 C-25 15.34 -25 14.68 -25 14 C-21.37 13.01 -17.74 12.02 -14 11 C-16.92824652 11.97608217 -18.95613276 12.08226668 -22 12 C-19.54544565 9.54544565 -17.6963213 9.20855855 -14.375 8.25 C-8.65302085 6.42999699 -4.48162594 3.95437583 0 0 Z " fill="#3A3A3A" transform="translate(50,53)"/>
<path d="M0 0 C0.7425 0.2475 1.485 0.495 2.25 0.75 C3.4875 1.100625 4.725 1.45125 6 1.8125 C7.0725 2.121875 8.145 2.43125 9.25 2.75 C9.25 3.41 9.25 4.07 9.25 4.75 C7.93 4.75 6.61 4.75 5.25 4.75 C5.25 5.41 5.25 6.07 5.25 6.75 C6.57 6.42 7.89 6.09 9.25 5.75 C8.7240625 6.8946875 8.7240625 6.8946875 8.1875 8.0625 C6.92639116 10.79759379 6.92639116 10.79759379 8.25 13.75 C4.5 16.75 4.5 16.75 2.25 16.75 C2.25 14.75 2.25 14.75 3.25 13.75 C2.321875 14.430625 1.39375 15.11125 0.4375 15.8125 C-0.614375 16.451875 -1.66625 17.09125 -2.75 17.75 C-3.74 17.42 -4.73 17.09 -5.75 16.75 C-4.1 15.43 -2.45 14.11 -0.75 12.75 C-2.07 13.08 -3.39 13.41 -4.75 13.75 C-2.75 11.75 -0.75 9.75 1.25 7.75 C0.92 6.76 0.59 5.77 0.25 4.75 C-0.30429687 5.12253906 -0.85859375 5.49507813 -1.4296875 5.87890625 C-2.15414062 6.35199219 -2.87859375 6.82507813 -3.625 7.3125 C-4.34429687 7.78816406 -5.06359375 8.26382813 -5.8046875 8.75390625 C-6.44664063 9.08261719 -7.08859375 9.41132812 -7.75 9.75 C-8.41 9.42 -9.07 9.09 -9.75 8.75 C-9.09 8.09 -8.43 7.43 -7.75 6.75 C-9.07 7.08 -10.39 7.41 -11.75 7.75 C-9.57575883 5.24962266 -8.01954202 4.31371414 -4.75 3.75 C-4.75 3.09 -4.75 2.43 -4.75 1.75 C-1.75 -0.25 -1.75 -0.25 0 0 Z " fill="#979797" transform="translate(61.75,95.25)"/>
<path d="M0 0 C1.65 0 3.3 0 5 0 C4.67 1.32 4.34 2.64 4 4 C4.66 4 5.32 4 6 4 C6 4.66 6 5.32 6 6 C6.66 6 7.32 6 8 6 C7.67 7.65 7.34 9.3 7 11 C8.32 11.33 9.64 11.66 11 12 C8.03 12 5.06 12 2 12 C2 12.66 2 13.32 2 14 C1.34 14 0.68 14 0 14 C-0.33 16.97 -0.66 19.94 -1 23 C-1.66 23 -2.32 23 -3 23 C-3 21.02 -3 19.04 -3 17 C-4.32 16.34 -5.64 15.68 -7 15 C-6.20928784 13.24956851 -5.41739082 11.49967222 -4.625 9.75 C-4.18414062 8.77546875 -3.74328125 7.8009375 -3.2890625 6.796875 C-2.23361862 4.50688161 -1.14456065 2.24633399 0 0 Z " fill="#EAEAEA" transform="translate(60,45)"/>
<path d="M0 0 C0 0.66 0 1.32 0 2 C0.8971875 2.37125 0.8971875 2.37125 1.8125 2.75 C4.31626919 4.18072525 5.48072388 5.5691582 7 8 C7 8.66 7 9.32 7 10 C7.66 10 8.32 10 9 10 C10.5078125 12.1171875 10.5078125 12.1171875 12.125 14.875 C12.66382812 15.77992187 13.20265625 16.68484375 13.7578125 17.6171875 C15 20 15 20 15 22 C12.36 22 9.72 22 7 22 C7 20.68 7 19.36 7 18 C6.34 17.34 5.68 16.68 5 16 C5.66 14.68 6.32 13.36 7 12 C6.34 12 5.68 12 5 12 C4.67 12.66 4.34 13.32 4 14 C3.34 14 2.68 14 2 14 C1.67 14.66 1.34 15.32 1 16 C1 15.01 1 14.02 1 13 C1.66 13 2.32 13 3 13 C2.67 11.68 2.34 10.36 2 9 C1.01 9 0.02 9 -1 9 C-1 8.34 -1 7.68 -1 7 C-1.66 7 -2.32 7 -3 7 C-3.33 5.68 -3.66 4.36 -4 3 C-4.99 3.66 -5.98 4.32 -7 5 C-7 3.68 -7 2.36 -7 1 C-3.375 -1.125 -3.375 -1.125 0 0 Z " fill="#BEBEBE" transform="translate(103,13)"/>
<path d="M0 0 C-0.33 0.66 -0.66 1.32 -1 2 C-1.99 1.67 -2.98 1.34 -4 1 C-4.33 2.32 -4.66 3.64 -5 5 C-4.01 5.66 -3.02 6.32 -2 7 C-2 7.66 -2 8.32 -2 9 C-3.32 9.33 -4.64 9.66 -6 10 C-6 13.3 -6 16.6 -6 20 C-6.99 20.33 -7.98 20.66 -9 21 C-8.814375 21.61875 -8.62875 22.2375 -8.4375 22.875 C-8 25 -8 25 -9 27 C-10.875 26.8125 -10.875 26.8125 -13 26 C-14.3125 23.5625 -14.3125 23.5625 -15 21 C-14.67 20.34 -14.34 19.68 -14 19 C-12.02 19.33 -10.04 19.66 -8 20 C-8 17.03 -8 14.06 -8 11 C-8.33 11.66 -8.66 12.32 -9 13 C-9.99 13 -10.98 13 -12 13 C-12.33 11.68 -12.66 10.36 -13 9 C-11.68 8.67 -10.36 8.34 -9 8 C-10.98 8.33 -12.96 8.66 -15 9 C-15 8.01 -15 7.02 -15 6 C-14.38125 5.731875 -13.7625 5.46375 -13.125 5.1875 C-10.7004767 4.04443152 -10.7004767 4.04443152 -9 1 C-5.62745872 -0.77502172 -3.61207747 -1.33780647 0 0 Z " fill="#D9D9D9" transform="translate(91,8)"/>
<path d="M0 0 C4.81161278 1.74750116 8.34576921 3.34576921 12 7 C8.04 6.67 4.08 6.34 0 6 C0 4 0 4 1 3 C-4.40787385 4.09786425 -4.40787385 4.09786425 -8 8 C-11.625 8.1875 -11.625 8.1875 -15 8 C-15 7.01 -15 6.02 -15 5 C-16.32 5 -17.64 5 -19 5 C-18.67 3.68 -18.34 2.36 -18 1 C-15.625 0.375 -15.625 0.375 -13 0 C-12.34 0.66 -11.68 1.32 -11 2 C-10.34 1.34 -9.68 0.68 -9 0 C-5.9429167 -1.52854165 -3.19805348 -0.78897364 0 0 Z " fill="#D2D2D2" transform="translate(88,5)"/>
<path d="M0 0 C5.28831802 0.04370511 9.73455398 0.70951307 14 4 C14.66 4.7425 15.32 5.485 16 6.25 C16.66 6.8275 17.32 7.405 18 8 C20.70705512 7.85974801 20.70705512 7.85974801 23 7 C22.57692877 8.31722179 22.13602514 9.62872664 21.6875 10.9375 C21.44386719 11.66839844 21.20023438 12.39929688 20.94921875 13.15234375 C20 15 20 15 17 16 C14 11.25 14 11.25 14 9 C12.88625 8.566875 12.88625 8.566875 11.75 8.125 C9 7 9 7 7.1875 5.90625 C4.32418244 4.72001844 2.30910379 5.01082098 -0.75 5.375 C-1.73484375 5.48585938 -2.7196875 5.59671875 -3.734375 5.7109375 C-4.48203125 5.80632813 -5.2296875 5.90171875 -6 6 C-4 4 -2 2 0 0 Z " fill="#C1C1C1" transform="translate(38,28)"/>
<path d="M0 0 C0.33 0.99 0.66 1.98 1 3 C1.99 3 2.98 3 4 3 C1.69 4.98 -0.62 6.96 -3 9 C-1.68 8.67 -0.36 8.34 1 8 C-1.1875 10.5 -1.1875 10.5 -4 13 C-5.66608987 13.04384447 -7.33380554 13.0396713 -9 13 C-10.81026389 13.86120315 -10.81026389 13.86120315 -12.625 15 C-16 17 -16 17 -19 17 C-19 16.34 -19 15.68 -19 15 C-19.5775 15.350625 -20.155 15.70125 -20.75 16.0625 C-23.39786506 17.16577711 -24.33185326 16.80156509 -27 16 C-25.58521865 15.35004703 -24.16808513 14.70521278 -22.75 14.0625 C-21.96109375 13.70285156 -21.1721875 13.34320313 -20.359375 12.97265625 C-18 12 -18 12 -15.98046875 11.54296875 C-9.74676341 9.83392527 -4.26807656 4.68111623 0 0 Z " fill="#242424" transform="translate(62,99)"/>
<path d="M0 0 C2.42130331 2.42130331 2.52840504 3.80111377 3.125 7.125 C3.29257813 8.03507812 3.46015625 8.94515625 3.6328125 9.8828125 C3.75398438 10.58148438 3.87515625 11.28015625 4 12 C3.34 12 2.68 12 2 12 C2 11.01 2 10.02 2 9 C-0.64 9.33 -3.28 9.66 -6 10 C-6 10.99 -6 11.98 -6 13 C-11.67359383 17.58893619 -18.08569117 20.78220283 -25 23 C-25 22.34 -25 21.68 -25 21 C-20.05 18.36 -15.1 15.72 -10 13 C-13.62114435 14.20704812 -16.58556472 16.07329072 -19.84375 18.0390625 C-22 19 -22 19 -25 18 C-22.37532366 16.5202565 -19.75027507 15.04118057 -17.125 13.5625 C-16.37863281 13.14162109 -15.63226563 12.72074219 -14.86328125 12.28710938 C-13.79013672 11.68286133 -13.79013672 11.68286133 -12.6953125 11.06640625 C-11.7055542 10.5086853 -11.7055542 10.5086853 -10.69580078 9.93969727 C-9.47885349 9.26534798 -8.24441397 8.62220698 -7 8 C-6.34 8.33 -5.68 8.66 -5 9 C-4.67 8.01 -4.34 7.02 -4 6 C-3.01 6 -2.02 6 -1 6 C-1.99 5.67 -2.98 5.34 -4 5 C-3 2 -3 2 0 0 Z " fill="#767676" transform="translate(82,107)"/>
<path d="M0 0 C0.268125 0.639375 0.53625 1.27875 0.8125 1.9375 C1.88667752 4.33131686 1.88667752 4.33131686 5 5 C4.34 5 3.68 5 3 5 C3.33 5.99 3.66 6.98 4 8 C4.66 8.33 5.32 8.66 6 9 C6 10.32 6 11.64 6 13 C6.99 13 7.98 13 9 13 C9 12.34 9 11.68 9 11 C9.66 11 10.32 11 11 11 C11 10.34 11 9.68 11 9 C10.01 9.33 9.02 9.66 8 10 C8.33 9.01 8.66 8.02 9 7 C9.66 7 10.32 7 11 7 C11.33 6.34 11.66 5.68 12 5 C12.19658808 6.41543415 12.38187546 7.83244031 12.5625 9.25 C12.66691406 10.03890625 12.77132812 10.8278125 12.87890625 11.640625 C13.00027349 14.00532874 12.69633257 15.7511037 12 18 C11.34 18 10.68 18 10 18 C9.67 17.01 9.34 16.02 9 15 C9 16.32 9 17.64 9 19 C8.34 19 7.68 19 7 19 C6.67 18.34 6.34 17.68 6 17 C4.68 17.33 3.36 17.66 2 18 C2 15.33333333 2 12.66666667 2 10 C1.34 10 0.68 10 0 10 C0.33 11.32 0.66 12.64 1 14 C-1.97 13.505 -1.97 13.505 -5 13 C-4.360625 12.525625 -3.72125 12.05125 -3.0625 11.5625 C-0.15149728 7.94579965 -0.19350218 4.52795106 0 0 Z " fill="#BABABA" transform="translate(72,81)"/>
<path d="M0 0 C1.98 0.66 3.96 1.32 6 2 C6.33 1.34 6.66 0.68 7 0 C8.65 0 10.3 0 12 0 C12 0.66 12 1.32 12 2 C13.65 2.33 15.3 2.66 17 3 C17.33 2.34 17.66 1.68 18 1 C18 1.66 18 2.32 18 3 C21.3 2.67 24.6 2.34 28 2 C28 2.99 28 3.98 28 5 C22.06 5 16.12 5 10 5 C10 5.66 10 6.32 10 7 C9.34 7.66 8.68 8.32 8 9 C8.66 9 9.32 9 10 9 C10 9.66 10 10.32 10 11 C9.34 11 8.68 11 8 11 C8 11.66 8 12.32 8 13 C6.68 13.33 5.36 13.66 4 14 C4.33 12.35 4.66 10.7 5 9 C4.01 8.67 3.02 8.34 2 8 C1.67 7.01 1.34 6.02 1 5 C0.67 5 0.34 5 0 5 C0 3.35 0 1.7 0 0 Z " fill="#D0D0D0" transform="translate(73,81)"/>
<path d="M0 0 C0.66 0.99 1.32 1.98 2 3 C0.34385343 3.38218767 -1.32457024 3.71395102 -3 4 C-3.33 3.67 -3.66 3.34 -4 3 C-6.33944736 3.28730055 -8.6739143 3.61936779 -11 4 C-11.33 5.98 -11.66 7.96 -12 10 C-10.68 10.66 -9.36 11.32 -8 12 C-8.33 9.69 -8.66 7.38 -9 5 C-7.68 5.33 -6.36 5.66 -5 6 C-4.64119601 11.3820598 -4.64119601 11.3820598 -6.125 13.9375 C-8 15 -8 15 -11.0625 14.8125 C-14 14 -14 14 -16 12 C-16.63366888 8.01693845 -16.10886188 6.20270833 -14.1875 2.625 C-10.53161403 -1.40070103 -5.01153322 -1.04104313 0 0 Z " fill="#CBCBCB" transform="translate(46,36)"/>
<path d="M0 0 C1.62418745 -0.08090971 3.24951745 -0.13914995 4.875 -0.1875 C5.77992187 -0.22230469 6.68484375 -0.25710937 7.6171875 -0.29296875 C8.79667969 -0.14794922 8.79667969 -0.14794922 10 0 C12 3 12 3 12 6 C8.91190305 7.76462683 7.76687864 8 4 8 C3.67 8.66 3.34 9.32 3 10 C0.36 8.35 -2.28 6.7 -5 5 C-4.34 3.68 -3.68 2.36 -3 1 C-2.34 1.33 -1.68 1.66 -1 2 C-0.67 1.34 -0.34 0.68 0 0 Z " fill="#C0C0C0" transform="translate(49,20)"/>
<path d="M0 0 C0.33 0 0.66 0 1 0 C1.08636719 0.65226562 1.17273438 1.30453125 1.26171875 1.9765625 C2.22602626 7.97473213 3.3603906 11.76383489 8 16 C10.58989886 17.53760229 13.22615541 18.82989186 16 20 C16 20.66 16 21.32 16 22 C12.8022676 22.18127735 10.05665695 21.99620775 7 21 C3.2939066 17.57627562 0.80951338 13.40915293 -1.6875 9.0625 C-3.18897375 6.70304125 -4.4160882 5.98010447 -7 5 C-6.401875 4.855625 -5.80375 4.71125 -5.1875 4.5625 C-3.43849596 4.1127561 -1.71322977 3.57107659 0 3 C0 2.01 0 1.02 0 0 Z " fill="#ABABAB" transform="translate(85,97)"/>
<path d="M0 0 C0.33 0 0.66 0 1 0 C1.165 1.216875 1.33 2.43375 1.5 3.6875 C2.76247912 9.61361468 6.02106592 14.213206 9.3203125 19.1796875 C11 22 11 22 11 25 C11.66 25 12.32 25 13 25 C14.38232443 26.62626404 15.71937515 28.2925002 17 30 C16.67 30.66 16.34 31.32 16 32 C13.03 31.01 10.06 30.02 7 29 C7.99 28.34 8.98 27.68 10 27 C10 25.68 10 24.36 10 23 C9.34 23 8.68 23 8 23 C8 22.34 8 21.68 8 21 C7.38125 20.731875 6.7625 20.46375 6.125 20.1875 C4 19 4 19 2 16 C2 14.68 2 13.36 2 12 C1.01 11.67 0.02 11.34 -1 11 C-1.33 9.35 -1.66 7.7 -2 6 C-1.34 6 -0.68 6 0 6 C0 4.02 0 2.04 0 0 Z " fill="#AFAFAF" transform="translate(75,37)"/>
<path d="M0 0 C0.66 0.33 1.32 0.66 2 1 C1.01 2.485 1.01 2.485 0 4 C0.66 3.34 1.32 2.68 2 2 C2.99 2.33 3.98 2.66 5 3 C2.11658466 7.21422242 -0.04303419 8.76075855 -5 10 C-5 9.34 -5 8.68 -5 8 C-6.98 8.66 -8.96 9.32 -11 10 C-11 9.34 -11 8.68 -11 8 C-11.94875 8.515625 -12.8975 9.03125 -13.875 9.5625 C-14.90625 10.036875 -15.9375 10.51125 -17 11 C-17.66 10.67 -18.32 10.34 -19 10 C-5.51660517 1.91881919 -5.51660517 1.91881919 0 0 Z " fill="#363636" transform="translate(88,129)"/>
<path d="M0 0 C0.66 0 1.32 0 2 0 C2.20741408 3.73345342 1.68183182 5.72226938 0 9 C-0.43672535 10.36876115 -0.85260495 11.74430695 -1.25 13.125 C-2.99433497 18.50112982 -5.6067629 23.47253322 -9 28 C-9.66 28 -10.32 28 -11 28 C-11 27.34 -11 26.68 -11 26 C-11.66 25.67 -12.32 25.34 -13 25 C-12.401875 24.525625 -11.80375 24.05125 -11.1875 23.5625 C-8.20879642 20.07316152 -7.2307361 16.3635189 -6 12 C-5.01 12 -4.02 12 -3 12 C-2.67 10.35 -2.34 8.7 -2 7 C-2.66 6.67 -3.32 6.34 -4 6 C-2.68 5.67 -1.36 5.34 0 5 C0 3.35 0 1.7 0 0 Z " fill="#767676" transform="translate(122,91)"/>
<path d="M0 0 C0.33 0.66 0.66 1.32 1 2 C2.32 1.67 3.64 1.34 5 1 C5.33 1.66 5.66 2.32 6 3 C5.34 3 4.68 3 4 3 C4.33 3.66 4.66 4.32 5 5 C5.33 4.67 5.66 4.34 6 4 C7.66617115 3.95936168 9.33388095 3.957279 11 4 C9 6 9 6 7 7 C7 7.99 7 8.98 7 10 C7.99 10 8.98 10 10 10 C10.33 9.01 10.66 8.02 11 7 C12.6415049 10.2830098 11.51888624 13.42545033 11 17 C10.01 17 9.02 17 8 17 C7.67 17.66 7.34 18.32 7 19 C7 15 7 15 9 13 C8.34 13 7.68 13 7 13 C7 12.34 7 11.68 7 11 C5.35 10.67 3.7 10.34 2 10 C2 8.35 2 6.7 2 5 C0.68 5 -0.64 5 -2 5 C-2.33 5.66 -2.66 6.32 -3 7 C-3.99 6.67 -4.98 6.34 -6 6 C-5.67 5.01 -5.34 4.02 -5 3 C-3.68 3 -2.36 3 -1 3 C-0.67 2.01 -0.34 1.02 0 0 Z " fill="#F2F2F2" transform="translate(72,11)"/>
<path d="M0 0 C6.57692308 0.57692308 6.57692308 0.57692308 8 2 C8.25 4.9375 8.25 4.9375 8 8 C4.79191085 10.1387261 3.72301503 10.47730962 0 10 C-2.14915785 6.77626323 -2.38286803 5.73296326 -2 2 C-1.34 1.34 -0.68 0.68 0 0 Z " fill="#707070" transform="translate(98,98)"/>
<path d="M0 0 C0 0.99 0 1.98 0 3 C-0.33 3.33 -0.66 3.66 -1 4 C0.65 3.34 2.3 2.68 4 2 C4 2.66 4 3.32 4 4 C3.21625 4.2475 2.4325 4.495 1.625 4.75 C-1.1156109 5.71525881 -1.1156109 5.71525881 -1.9140625 7.9375 C-3.25654504 10.48725101 -4.41576502 11.05289115 -7 12.25 C-7.70125 12.58515625 -8.4025 12.9203125 -9.125 13.265625 C-11 14 -11 14 -13 14 C-13 13.34 -13 12.68 -13 12 C-14.32 12.33 -15.64 12.66 -17 13 C-14.47043472 9.9083091 -11.77545388 9.09068668 -8 8 C-8 7.01 -8 6.02 -8 5 C-6.25 3.61328125 -6.25 3.61328125 -4 2.3125 C-3.2575 1.87550781 -2.515 1.43851562 -1.75 0.98828125 C-1.1725 0.66214844 -0.595 0.33601563 0 0 Z " fill="#222222" transform="translate(76,119)"/>
<path d="M0 0 C0.99 0 1.98 0 3 0 C5.73506974 8.6865815 4.41346104 19.40204504 2 28 C0.9375 26.1875 0.9375 26.1875 0 24 C0.33 23.01 0.66 22.02 1 21 C0.34 21 -0.32 21 -1 21 C-1 20.01 -1 19.02 -1 18 C-0.34 18 0.32 18 1 18 C1 17.34 1 16.68 1 16 C1.66 16 2.32 16 3 16 C3 13.69 3 11.38 3 9 C1.576875 9.0928125 1.576875 9.0928125 0.125 9.1875 C-0.90625 9.125625 -1.9375 9.06375 -3 9 C-3.66 8.01 -4.32 7.02 -5 6 C-3.02 5.34 -1.04 4.68 1 4 C0.34 3.67 -0.32 3.34 -1 3 C-0.67 2.01 -0.34 1.02 0 0 Z " fill="#727272" transform="translate(123,61)"/>
<path d="M0 0 C1.08667969 0.29197266 1.08667969 0.29197266 2.1953125 0.58984375 C2.74960938 0.74582031 3.30390625 0.90179688 3.875 1.0625 C2.875 4.0625 2.875 4.0625 0.875 5.0625 C1.865 5.7225 2.855 6.3825 3.875 7.0625 C2.875 8.0625 2.875 8.0625 0.3125 8.125 C-0.491875 8.104375 -1.29625 8.08375 -2.125 8.0625 C-1.795 6.7425 -1.465 5.4225 -1.125 4.0625 C-1.785 4.0625 -2.445 4.0625 -3.125 4.0625 C-3.455 5.0525 -3.785 6.0425 -4.125 7.0625 C-4.846875 6.835625 -5.56875 6.60875 -6.3125 6.375 C-9.88084692 5.97851701 -11.26371099 7.01872213 -14.125 9.0625 C-14.125 7.0625 -14.125 7.0625 -12.125 5.0625 C-12.785 4.7325 -13.445 4.4025 -14.125 4.0625 C-12.805 3.0725 -11.485 2.0825 -10.125 1.0625 C-9.465 1.3925 -8.805 1.7225 -8.125 2.0625 C-7.465 1.4025 -6.805 0.7425 -6.125 0.0625 C-3.57797384 -1.21101308 -2.6967055 -0.73941925 0 0 Z " fill="#808080" transform="translate(95.125,120.9375)"/>
<path d="M0 0 C0.99 0 1.98 0 3 0 C3.66 0.66 4.32 1.32 5 2 C5.66 1.34 6.32 0.68 7 0 C6.43628586 3.26954202 5.50037734 4.82575883 3 7 C2.34 6.67 1.68 6.34 1 6 C1 6.66 1 7.32 1 8 C1.66 8.33 2.32 8.66 3 9 C2.67 9.66 2.34 10.32 2 11 C3.65 11.33 5.3 11.66 7 12 C6.01 12.495 6.01 12.495 5 13 C5 13.99 5 14.98 5 16 C3.35 16 1.7 16 0 16 C0.33 14.35 0.66 12.7 1 11 C0.34 11 -0.32 11 -1 11 C-1 10.34 -1 9.68 -1 9 C-1.66 9 -2.32 9 -3 9 C-3.33 8.01 -3.66 7.02 -4 6 C-4.66 6 -5.32 6 -6 6 C-5.67 5.01 -5.34 4.02 -5 3 C-3.68 3 -2.36 3 -1 3 C-1 3.66 -1 4.32 -1 5 C-0.01 5 0.98 5 2 5 C1.34 3.35 0.68 1.7 0 0 Z " fill="#F2F2F2" transform="translate(67,40)"/>
<path d="M0 0 C0.66 0.33 1.32 0.66 2 1 C-3.75 6 -3.75 6 -6 6 C-6.2475 6.61230469 -6.495 7.22460938 -6.75 7.85546875 C-8.227141 10.38968878 -9.37933646 11.06479438 -12 12.3125 C-12.70125 12.65925781 -13.4025 13.00601563 -14.125 13.36328125 C-15.053125 13.67845703 -15.053125 13.67845703 -16 14 C-16.66 13.67 -17.32 13.34 -18 13 C-17.67 12.34 -17.34 11.68 -17 11 C-17.99 10.67 -18.98 10.34 -20 10 C-13.33333333 6.66666667 -6.66666667 3.33333333 0 0 Z " fill="#4A4A4A" transform="translate(70,108)"/>
<path d="M0 0 C3.65884082 1.21961361 3.84713492 2.11613003 5.6875 5.375 C8.3398347 9.53164394 10.38436745 11.23408493 15.09765625 12.58203125 C15.72542969 12.71996094 16.35320312 12.85789062 17 13 C17.99 13.226875 18.98 13.45375 20 13.6875 C20.99 13.8421875 20.99 13.8421875 22 14 C20 16 20 16 16.25 16.375 C11.7813798 16.22146694 9.36336981 15.0644036 6 12 C3.45780827 8.19358319 1.44747159 4.34241478 0 0 Z " fill="#313131" transform="translate(82,106)"/>
<path d="M0 0 C0.66 0.33 1.32 0.66 2 1 C1.67 1.99 1.34 2.98 1 4 C3.64 4.33 6.28 4.66 9 5 C9.33 6.32 9.66 7.64 10 9 C9.01 9 8.02 9 7 9 C8.65 9.33 10.3 9.66 12 10 C9.8614515 12.1385485 8.86724686 12.42655063 6 13 C5.67 12.01 5.34 11.02 5 10 C2.66185003 8.87588944 0.41744424 7.90590542 -2 7 C-2.969375 6.608125 -3.93875 6.21625 -4.9375 5.8125 C-5.618125 5.544375 -6.29875 5.27625 -7 5 C-7 4.67 -7 4.34 -7 4 C-5.02 4 -3.04 4 -1 4 C-0.67 2.68 -0.34 1.36 0 0 Z " fill="#E0E0E0" transform="translate(109,82)"/>
<path d="M0 0 C0.66 0.33 1.32 0.66 2 1 C-7.33573964 8.02711856 -16.12888236 13.41617454 -28 14 C-26.50567562 11.01135124 -24.30616995 10.72246798 -21.25 9.5 C-20.20328125 9.0771875 -19.1565625 8.654375 -18.078125 8.21875 C-17.06234375 7.8165625 -16.0465625 7.414375 -15 7 C-14.08605469 6.62617187 -13.17210937 6.25234375 -12.23046875 5.8671875 C-10 5 -10 5 -8.0625 4.625 C-4.97713817 3.69004187 -2.61621081 1.84323943 0 0 Z " fill="#2B2B2B" transform="translate(66,107)"/>
<path d="M0 0 C1.32 0 2.64 0 4 0 C4.66 0.66 5.32 1.32 6 2 C6.66 1.34 7.32 0.68 8 0 C8.33 0.99 8.66 1.98 9 3 C8.67 3.66 8.34 4.32 8 5 C7.34 5 6.68 5 6 5 C6 7.31 6 9.62 6 12 C3.69 12 1.38 12 -1 12 C-1.33 10.35 -1.66 8.7 -2 7 C-0.68 7.33 0.64 7.66 2 8 C2.33 6.02 2.66 4.04 3 2 C2.01 1.67 1.02 1.34 0 1 C0 0.67 0 0.34 0 0 Z " fill="#D4D4D4" transform="translate(116,74)"/>
<path d="M0 0 C0 3 0 3 -1.4375 4.625 C-1.953125 5.07875 -2.46875 5.5325 -3 6 C-3.33 6.33 -3.66 6.66 -4 7 C-3.34 7.33 -2.68 7.66 -2 8 C-2.625 9.875 -2.625 9.875 -4 12 C-7.125 13.25 -7.125 13.25 -10 14 C-10 13.34 -10 12.68 -10 12 C-13.83067031 10.08466484 -17.90940033 11.38255099 -22 12 C-19.54544565 9.54544565 -17.6963213 9.20855855 -14.375 8.25 C-8.65302085 6.42999699 -4.48162594 3.95437583 0 0 Z " fill="#5B5B5B" transform="translate(50,53)"/>
<path d="M0 0 C0.66 0.99 1.32 1.98 2 3 C1.67 3.99 1.34 4.98 1 6 C1.66 6 2.32 6 3 6 C3.33 5.01 3.66 4.02 4 3 C4.66 3 5.32 3 6 3 C6 2.01 6 1.02 6 0 C7.32 0.33 8.64 0.66 10 1 C9.67 2.32 9.34 3.64 9 5 C7.68 5 6.36 5 5 5 C5 5.66 5 6.32 5 7 C4.34 7 3.68 7 3 7 C2.67 9.97 2.34 12.94 2 16 C1.34 16 0.68 16 0 16 C0 14.02 0 12.04 0 10 C-1.32 9.34 -2.64 8.68 -4 8 C-2.68 5.36 -1.36 2.72 0 0 Z " fill="#CACACA" transform="translate(57,52)"/>
<path d="M0 0 C1.32 0.33 2.64 0.66 4 1 C4 1.66 4 2.32 4 3 C5.98 3 7.96 3 10 3 C7.0098979 6.33511388 4.10501426 8.21521119 0 10 C-2 10 -4 10 -6 10 C-6.66 9.01 -7.32 8.02 -8 7 C-7.67 6.01 -7.34 5.02 -7 4 C-6.34 4.66 -5.68 5.32 -5 6 C-1.91652174 6.16681109 -1.91652174 6.16681109 1 6 C1.33 4.68 1.66 3.36 2 2 C1.34 2 0.68 2 0 2 C0 1.34 0 0.68 0 0 Z " fill="#D4D4D4" transform="translate(85,32)"/>
<path d="M0 0 C0.33 1.32 0.66 2.64 1 4 C0.34 4 -0.32 4 -1 4 C-1 5.65 -1 7.3 -1 9 C-1.66 9 -2.32 9 -3 9 C-3 9.66 -3 10.32 -3 11 C-2.34 11 -1.68 11 -1 11 C-1 11.99 -1 12.98 -1 14 C4.445 13.505 4.445 13.505 10 13 C10 13.66 10 14.32 10 15 C4.72 15 -0.56 15 -6 15 C-7 12 -7 12 -5.5625 8.8125 C-5.046875 7.884375 -4.53125 6.95625 -4 6 C-3.34 6 -2.68 6 -2 6 C-1.855625 5.195625 -1.71125 4.39125 -1.5625 3.5625 C-1 1 -1 1 0 0 Z " fill="#C3C3C3" transform="translate(47,72)"/>
<path d="M0 0 C6.92700615 0.71046217 13.07600672 3.07600672 18 8 C14.04 7.67 10.08 7.34 6 7 C6 5 6 5 7 4 C4.69 4.66 2.38 5.32 0 6 C0 4 0 2 0 0 Z " fill="#A7A7A7" transform="translate(82,4)"/>
<path d="M0 0 C0.99 0.33 1.98 0.66 3 1 C2.25 7.625 2.25 7.625 0 11 C-3.63 10.67 -7.26 10.34 -11 10 C-11 9.67 -11 9.34 -11 9 C-9.9275 8.814375 -8.855 8.62875 -7.75 8.4375 C-5.30960856 7.76923865 -4.2431191 7.3033734 -2.64453125 5.30859375 C-1.67912119 3.58340249 -0.83056012 1.79400985 0 0 Z " fill="#939393" transform="translate(110,101)"/>
<path d="M0 0 C0 2.31 0 4.62 0 7 C-0.66 6.34 -1.32 5.68 -2 5 C-2.99 5.66 -3.98 6.32 -5 7 C-5.33 6.01 -5.66 5.02 -6 4 C-6.99 3.67 -7.98 3.34 -9 3 C-10.34090759 2.34870203 -11.67592331 1.68486725 -13 1 C-8.21445459 -2.88825564 -5.49029017 -1.76805955 0 0 Z " fill="#ABABAB" transform="translate(126,70)"/>
<path d="M0 0 C1.15242188 0.01804688 2.30484375 0.03609375 3.4921875 0.0546875 C4.36101562 0.07789063 5.22984375 0.10109375 6.125 0.125 C2.70405758 2.40562828 1.44312778 2.34425007 -2.5625 2.25 C-4.05330078 2.22292969 -4.05330078 2.22292969 -5.57421875 2.1953125 C-6.33347656 2.17210937 -7.09273438 2.14890625 -7.875 2.125 C-7.875 2.785 -7.875 3.445 -7.875 4.125 C-5.895 4.125 -3.915 4.125 -1.875 4.125 C-1.545 4.785 -1.215 5.445 -0.875 6.125 C-5.495 6.125 -10.115 6.125 -14.875 6.125 C-12.875 2.125 -12.875 2.125 -10.1796875 0.8828125 C-6.66385875 0.07658227 -3.60180486 -0.07350622 0 0 Z " fill="#A7A7A7" transform="translate(104.875,42.875)"/>
<path d="M0 0 C8.00945568 -0.30372936 14.69065285 -0.50848663 22 3 C22 3.66 22 4.32 22 5 C20.33388095 5.042721 18.66617115 5.04063832 17 5 C16.67 4.67 16.34 4.34 16 4 C14.6249973 3.97934545 13.24911411 4.00893284 11.875 4.0625 C7.51164476 4.12533232 4.11683305 3.40147508 0 2 C0 1.34 0 0.68 0 0 Z " fill="#EDEDEC" transform="translate(97,45)"/>
<path d="M0 0 C0.33 0.99 0.66 1.98 1 3 C-0.65 3.33 -2.3 3.66 -4 4 C-4 4.66 -4 5.32 -4 6 C-3.34 6 -2.68 6 -2 6 C-2 6.99 -2 7.98 -2 9 C-2.66 9 -3.32 9 -4 9 C-3.67 11.31 -3.34 13.62 -3 16 C-3.99 15.67 -4.98 15.34 -6 15 C-6.33 15.66 -6.66 16.32 -7 17 C-7 16.34 -7 15.68 -7 15 C-7.99 14.67 -8.98 14.34 -10 14 C-8.68 13.67 -7.36 13.34 -6 13 C-6.33 12.34 -6.66 11.68 -7 11 C-6.91348369 9.45386986 -6.75997364 7.91090613 -6.5625 6.375 C-6.46066406 5.55773437 -6.35882813 4.74046875 -6.25390625 3.8984375 C-6.17011719 3.27195312 -6.08632812 2.64546875 -6 2 C-4.02 1.34 -2.04 0.68 0 0 Z " fill="#D2D2D2" transform="translate(78,64)"/>
<path d="M0 0 C0.33 1.98 0.66 3.96 1 6 C-1 5 -1 5 -2 2 C-2.66 1.67 -3.32 1.34 -4 1 C-3.34 3.31 -2.68 5.62 -2 8 C-3.98 8.99 -3.98 8.99 -6 10 C-7.23921302 7.02588876 -8.30058404 4.14737182 -9 1 C-3.375 -1.125 -3.375 -1.125 0 0 Z " fill="#E1E1E1" transform="translate(62,27)"/>
<path d="M0 0 C0.92232422 0.10828125 0.92232422 0.10828125 1.86328125 0.21875 C3.07564453 0.35796875 3.07564453 0.35796875 4.3125 0.5 C5.51326172 0.63921875 5.51326172 0.63921875 6.73828125 0.78125 C9.11896555 1.04813463 9.11896555 1.04813463 12 1 C10.68 3.64 9.36 6.28 8 9 C7.34 9 6.68 9 6 9 C3 4.61538462 3 4.61538462 3 2 C2.01 1.67 1.02 1.34 0 1 C0 0.67 0 0.34 0 0 Z " fill="#BFBFBF" transform="translate(49,35)"/>
<path d="M0 0 C1.65 0 3.3 0 5 0 C5.33 2.64 5.66 5.28 6 8 C4.68 8.99 3.36 9.98 2 11 C2 10.34 2 9.68 2 9 C1.34 9 0.68 9 0 9 C-1.125 3.375 -1.125 3.375 0 0 Z " fill="#E6E6E6" transform="translate(84,69)"/>
<path d="M0 0 C1.31329673 3.93989019 0.12217882 6.07237412 -1 10 C-0.67 10.99 -0.34 11.98 0 13 C-1.65 12.67 -3.3 12.34 -5 12 C-5.125 9.125 -5.125 9.125 -5 6 C-4.34 5.34 -3.68 4.68 -3 4 C-3.66 3.34 -4.32 2.68 -5 2 C-3.35 1.34 -1.7 0.68 0 0 Z " fill="#D3D3D3" transform="translate(71,56)"/>
<path d="M0 0 C2.6875 0.875 2.6875 0.875 5 2 C5 2.66 5 3.32 5 4 C4.34 4 3.68 4 3 4 C3.33 5.65 3.66 7.3 4 9 C2.68 9.33 1.36 9.66 0 10 C-3 5.375 -3 5.375 -3 2 C-2.01 1.34 -1.02 0.68 0 0 Z " fill="#E6E6E6" transform="translate(77,71)"/>
<path d="M0 0 C2.3125 -0.3125 2.3125 -0.3125 5 0 C6.8125 2.5 6.8125 2.5 8 5 C7.01 5 6.02 5 5 5 C5 5.99 5 6.98 5 8 C5.66 8 6.32 8 7 8 C7 8.99 7 9.98 7 11 C6.34 11 5.68 11 5 11 C3.7109375 9.609375 3.7109375 9.609375 2.375 7.75 C1.92898437 7.14671875 1.48296875 6.5434375 1.0234375 5.921875 C0 4 0 4 0 0 Z " fill="#B9B9B9" transform="translate(91,54)"/>
<path d="M0 0 C2.375 -0.1875 2.375 -0.1875 5 0 C7 3 7 3 7 6 C3.91190305 7.76462683 2.76687864 8 -1 8 C-1.33 8.66 -1.66 9.32 -2 10 C-2.99 9.01 -3.98 8.02 -5 7 C-4.2575 6.855625 -3.515 6.71125 -2.75 6.5625 C-0.47972261 6.09812508 1.75759479 5.58136431 4 5 C3.01 4.01 2.02 3.02 1 2 C0.67 2.66 0.34 3.32 0 4 C0 2.68 0 1.36 0 0 Z " fill="#AEAEAE" transform="translate(54,20)"/>
<path d="M0 0 C-2.22552258 1.15341698 -4.45495969 2.29781159 -6.6875 3.4375 C-7.62625977 3.92573242 -7.62625977 3.92573242 -8.58398438 4.42382812 C-12.03713639 6.17752313 -15.15193519 7.47760497 -19 8 C-18.67 7.34 -18.34 6.68 -18 6 C-18.66 5.34 -19.32 4.68 -20 4 C-17.69 3.34 -15.38 2.68 -13 2 C-13 2.66 -13 3.32 -13 4 C-12.31292969 3.62746094 -11.62585937 3.25492187 -10.91796875 2.87109375 C-10.01691406 2.39800781 -9.11585937 1.92492187 -8.1875 1.4375 C-7.29417969 0.96183594 -6.40085937 0.48617187 -5.48046875 -0.00390625 C-3 -1 -3 -1 0 0 Z " fill="#121212" transform="translate(56,112)"/>
<path d="M0 0 C0.83789062 0.48082031 1.67578125 0.96164063 2.5390625 1.45703125 C6.34741638 3.15488654 9.22826558 3.49189932 13.375 3.6875 C15.24285156 3.78611328 15.24285156 3.78611328 17.1484375 3.88671875 C18.08945313 3.92410156 19.03046875 3.96148437 20 4 C20 4.66 20 5.32 20 6 C20.66 6.33 21.32 6.66 22 7 C21.26394531 6.91621094 20.52789062 6.83242187 19.76953125 6.74609375 C18.79371094 6.64425781 17.81789063 6.54242188 16.8125 6.4375 C15.84957031 6.33308594 14.88664062 6.22867188 13.89453125 6.12109375 C11.00432155 5.88529662 11.00432155 5.88529662 8.23828125 6.5546875 C7.13033203 6.77511719 7.13033203 6.77511719 6 7 C4.375 5.6875 4.375 5.6875 3 4 C2.01 3.34 1.02 2.68 0 2 C0 1.34 0 0.68 0 0 Z " fill="#A1A1A1" transform="translate(93,68)"/>
<path d="M0 0 C0.99 0.33 1.98 0.66 3 1 C3 1.66 3 2.32 3 3 C3.33 3.99 3.66 4.98 4 6 C0.25 9 0.25 9 -2 9 C-2 7 -2 7 -1 6 C-1.928125 6.680625 -2.85625 7.36125 -3.8125 8.0625 C-4.864375 8.701875 -5.91625 9.34125 -7 10 C-7.99 9.67 -8.98 9.34 -10 9 C-9.01 8.38125 -8.02 7.7625 -7 7.125 C-6.01 6.42375 -5.02 5.7225 -4 5 C-4 4.34 -4 3.68 -4 3 C-2.1875 1.3125 -2.1875 1.3125 0 0 Z " fill="#787878" transform="translate(66,103)"/>
<path d="M0 0 C1.65 0 3.3 0 5 0 C5 0.66 5 1.32 5 2 C5.99 2.33 6.98 2.66 8 3 C9.1875 5.5625 9.1875 5.5625 10 8 C8.68 8.99 7.36 9.98 6 11 C5.67 10.01 5.34 9.02 5 8 C4.34 8 3.68 8 3 8 C3 7.34 3 6.68 3 6 C4.32 6 5.64 6 7 6 C6.34 5.67 5.68 5.34 5 5 C5 4.34 5 3.68 5 3 C3.35 3.33 1.7 3.66 0 4 C0 2.68 0 1.36 0 0 Z " fill="#CBCBCB" transform="translate(64,94)"/>
<path d="M0 0 C0.73080266 1.97746603 1.39421747 3.98072489 2 6 C1.67 6.66 1.34 7.32 1 8 C-1.28515625 8.6328125 -1.28515625 8.6328125 -4.0625 9.125 C-4.98160156 9.29257813 -5.90070312 9.46015625 -6.84765625 9.6328125 C-7.91306641 9.81457031 -7.91306641 9.81457031 -9 10 C-6.94766315 7.7522025 -5.99332739 6.9977758 -3 6 C-4.32 5.67 -5.64 5.34 -7 5 C-5.35 4.34 -3.7 3.68 -2 3 C-2.99 2.34 -3.98 1.68 -5 1 C-2 0 -2 0 0 0 Z " fill="#111111" transform="translate(37,94)"/>
<path d="M0 0 C3.64775386 3.88309282 4.58525633 6.71201818 5 12 C3.741875 12.020625 2.48375 12.04125 1.1875 12.0625 C0.47980469 12.07410156 -0.22789063 12.08570312 -0.95703125 12.09765625 C-3 12 -3 12 -6 11 C-5.67 10.01 -5.34 9.02 -5 8 C-5 8.66 -5 9.32 -5 10 C-4.38125 9.814375 -3.7625 9.62875 -3.125 9.4375 C-1 9 -1 9 1 10 C1 9.34 1 8.68 1 8 C1.66 8 2.32 8 3 8 C3 7.34 3 6.68 3 6 C2.34 6 1.68 6 1 6 C0.67 4.02 0.34 2.04 0 0 Z " fill="#A5A5A5" transform="translate(64,76)"/>
<path d="M0 0 C1.65 0.33 3.3 0.66 5 1 C4.67 3.31 4.34 5.62 4 8 C3.01 8.33 2.02 8.66 1 9 C1 7.68 1 6.36 1 5 C0.01 5 -0.98 5 -2 5 C-1.34 3.35 -0.68 1.7 0 0 Z " fill="#E8E8E8" transform="translate(53,61)"/>
<path d="M0 0 C8.08888889 -0.46666667 8.08888889 -0.46666667 11.5625 1.3125 C13 3 13 3 13 6 C9.62537285 5.45276317 7.91765 4.9451 5 3 C3.68 3 2.36 3 1 3 C0.67 2.01 0.34 1.02 0 0 Z " fill="#343434" transform="translate(107,34)"/>
<path d="M0 0 C0.33 0.99 0.66 1.98 1 3 C1.99 3 2.98 3 4 3 C0.22649464 6.42248161 -1.90901975 8.21677227 -7 9 C-7.886875 9.53625 -8.77375 10.0725 -9.6875 10.625 C-10.450625 11.07875 -11.21375 11.5325 -12 12 C-12.66 11.67 -13.32 11.34 -14 11 C-13.40832031 10.62488281 -12.81664062 10.24976562 -12.20703125 9.86328125 C-7.64018376 6.90563287 -3.6682206 4.02320969 0 0 Z " fill="#535353" transform="translate(62,99)"/>
<path d="M0 0 C1.32 0 2.64 0 4 0 C4 0.66 4 1.32 4 2 C3.01 2 2.02 2 1 2 C0.67 2.99 0.34 3.98 0 5 C-3.66666667 5 -7.33333333 5 -11 5 C-11 4.01 -11 3.02 -11 2 C-10.28972656 1.93941406 -9.57945313 1.87882812 -8.84765625 1.81640625 C-7.46900391 1.69072266 -7.46900391 1.69072266 -6.0625 1.5625 C-5.14597656 1.48128906 -4.22945313 1.40007812 -3.28515625 1.31640625 C-1.03840268 1.23955024 -1.03840268 1.23955024 0 0 Z " fill="#4A4A4A" transform="translate(113,63)"/>
<path d="M0 0 C2.18703385 -0.37907282 2.18703385 -0.37907282 4 -1 C1.45217026 1.97246802 -1.45340883 3.41535288 -5 5 C-5.66 5 -6.32 5 -7 5 C-7 4.34 -7 3.68 -7 3 C-8.32 3.33 -9.64 3.66 -11 4 C-7.48462894 0.13309183 -5.10529641 -1.43586461 0 0 Z " fill="#3D3D3D" transform="translate(70,128)"/>
<path d="M0 0 C2.475 0.99 2.475 0.99 5 2 C5.1875 4.875 5.1875 4.875 5 8 C2 10 2 10 -2 10 C-2 9.34 -2 8.68 -2 8 C-1.01 7.67 -0.02 7.34 1 7 C0.67 4.69 0.34 2.38 0 0 Z " fill="#ACACAC" transform="translate(101,98)"/>
<path d="M0 0 C3.77159691 1.25719897 4.83312718 2.7123309 7 6 C7.25 8.8125 7.25 8.8125 7 11 C6.67 9.68 6.34 8.36 6 7 C4.70366379 8.06645115 4.70366379 8.06645115 4.9375 10.5625 C4.958125 11.366875 4.97875 12.17125 5 13 C2.2946129 8.94191935 0 4.95110601 0 0 Z " fill="#2F2F2F" transform="translate(65,75)"/>
<path d="M0 0 C3.63 0 7.26 0 11 0 C10.67 1.32 10.34 2.64 10 4 C6.33333333 4 2.66666667 4 -1 4 C-0.67 2.68 -0.34 1.36 0 0 Z " fill="#E0E0E0" transform="translate(91,25)"/>
<path d="M0 0 C0.99 0.33 1.98 0.66 3 1 C2.979375 1.78375 2.95875 2.5675 2.9375 3.375 C2.81315937 5.98114961 2.81315937 5.98114961 4 8 C1.36 7.67 -1.28 7.34 -4 7 C-2.92598892 4.08482708 -2.22189824 2.22189824 0 0 Z " fill="#7E7E7E" transform="translate(42,18)"/>
<path d="M0 0 C1.32 0.66 2.64 1.32 4 2 C4.48676056 9.42309859 4.48676056 9.42309859 2.3125 12 C-0.3119388 13.13489245 -2.16910178 13.23590819 -5 13 C-3.03617993 11.49440461 -1.21736634 10.10868317 1 9 C1.07427838 5.65747276 1.06546953 3.1964086 0 0 Z " fill="#171717" transform="translate(104,97)"/>
<path d="M0 0 C0.66 0 1.32 0 2 0 C2 0.66 2 1.32 2 2 C3.32 1.34 4.64 0.68 6 0 C6 0.99 6 1.98 6 3 C6.66 3.33 7.32 3.66 8 4 C8 4.66 8 5.32 8 6 C7.34 6 6.68 6 6 6 C6 6.66 6 7.32 6 8 C4.68 8.33 3.36 8.66 2 9 C2.33 7.35 2.66 5.7 3 4 C2.01 3.67 1.02 3.34 0 3 C0 2.01 0 1.02 0 0 Z " fill="#DFDFDF" transform="translate(75,86)"/>
<path d="M0 0 C0.33 0 0.66 0 1 0 C1.12117188 0.59167969 1.24234375 1.18335938 1.3671875 1.79296875 C2.26744643 6.03803585 3.20456621 10.02439661 5 14 C4.01 14.33 3.02 14.66 2 15 C2 14.01 2 13.02 2 12 C1.01 11.67 0.02 11.34 -1 11 C-1.33 9.35 -1.66 7.7 -2 6 C-1.34 6 -0.68 6 0 6 C0 4.02 0 2.04 0 0 Z " fill="#A0A0A0" transform="translate(75,37)"/>
<path d="M0 0 C1.65 0.33 3.3 0.66 5 1 C4.01 1.33 3.02 1.66 2 2 C2.33 4.31 2.66 6.62 3 9 C1.68 8.67 0.36 8.34 -1 8 C-1.625 5.6875 -1.625 5.6875 -2 3 C-1.34 2.01 -0.68 1.02 0 0 Z " fill="#212121" transform="translate(35,39)"/>
<path d="M0 0 C-0.66 1.65 -1.32 3.3 -2 5 C-6.455 5.495 -6.455 5.495 -11 6 C-10.67 5.34 -10.34 4.68 -10 4 C-9.34 4 -8.68 4 -8 4 C-7.67 3.01 -7.34 2.02 -7 1 C-4 0 -4 0 0 0 Z " fill="#616161" transform="translate(99,35)"/>
<path d="M0 0 C2.8125 2.375 2.8125 2.375 5 5 C5 5.99 5 6.98 5 8 C3.68 7.34 2.36 6.68 1 6 C1 5.34 1 4.68 1 4 C0.236875 3.71125 -0.52625 3.4225 -1.3125 3.125 C-4 2 -4 2 -7 0 C-4.19664415 -1.40167793 -2.9650644 -0.96536981 0 0 Z " fill="#2B2B2B" transform="translate(51,28)"/>
<path d="M0 0 C1.65 0 3.3 0 5 0 C5.33 2.31 5.66 4.62 6 7 C4.02 7.99 4.02 7.99 2 9 C1.34 6.03 0.68 3.06 0 0 Z " fill="#ECECEC" transform="translate(44,39)"/>
<path d="M0 0 C0 1.32 0 2.64 0 4 C-0.639375 4.28875 -1.27875 4.5775 -1.9375 4.875 C-4.15206079 5.82823451 -4.15206079 5.82823451 -5 8 C-6.32 8 -7.64 8 -9 8 C-8.875 5.6875 -8.875 5.6875 -8 3 C-3.13793103 0 -3.13793103 0 0 0 Z " fill="#D9D9D9" transform="translate(99,92)"/>
<path d="M0 0 C2.31 0 4.62 0 7 0 C6 3 6 3 4 4 C4.99 4.66 5.98 5.32 7 6 C6 7 6 7 3.4375 7.0625 C2.2309375 7.0315625 2.2309375 7.0315625 1 7 C0.67 4.69 0.34 2.38 0 0 Z " fill="#929292" transform="translate(92,122)"/>
<path d="M0 0 C0.33 0.66 0.66 1.32 1 2 C2.32 2.33 3.64 2.66 5 3 C0.545 4.485 0.545 4.485 -4 6 C-4 5.34 -4 4.68 -4 4 C-5.32 4.33 -6.64 4.66 -8 5 C-5.64722731 2.27573689 -3.37503669 1.1858237 0 0 Z " fill="#2C2C2C" transform="translate(51,121)"/>
<path d="M0 0 C0.99 0.33 1.98 0.66 3 1 C2.01 2.485 2.01 2.485 1 4 C0.01 4 -0.98 4 -2 4 C-1.67 5.32 -1.34 6.64 -1 8 C-1.99 8.495 -1.99 8.495 -3 9 C-1.02 9.495 -1.02 9.495 1 10 C-0.32 10.99 -1.64 11.98 -3 13 C-4.36952673 10.26094655 -4.12621361 8.02912668 -4 5 C-3.67 4.34 -3.34 3.68 -3 3 C-2.34 3 -1.68 3 -1 3 C-0.67 2.01 -0.34 1.02 0 0 Z " fill="#8D8D8D" transform="translate(93,91)"/>
<path d="M0 0 C0.33 1.32 0.66 2.64 1 4 C-1.375 5.5625 -1.375 5.5625 -4 7 C-4.66 6.67 -5.32 6.34 -6 6 C-5.01 5.34 -4.02 4.68 -3 4 C-5.64 4.33 -8.28 4.66 -11 5 C-7.72709962 2.33319229 -4.35126896 0 0 0 Z " fill="#555555" transform="translate(40,69)"/>
<path d="M0 0 C1.65 0 3.3 0 5 0 C5.66 1.32 6.32 2.64 7 4 C5.02 4.99 3.04 5.98 1 7 C1 6.34 1 5.68 1 5 C0.34 5 -0.32 5 -1 5 C-0.67 3.35 -0.34 1.7 0 0 Z " fill="#F8F8F8" transform="translate(62,57)"/>
<path d="M0 0 C0.99 0.33 1.98 0.66 3 1 C3 2.98 3 4.96 3 7 C-0.3 6.01 -3.6 5.02 -7 4 C-7 3.67 -7 3.34 -7 3 C-4.69 3 -2.38 3 0 3 C0 2.01 0 1.02 0 0 Z " fill="#919191" transform="translate(121,48)"/>
<path d="M0 0 C1.2065625 0.0309375 1.2065625 0.0309375 2.4375 0.0625 C2.4375 1.7125 2.4375 3.3625 2.4375 5.0625 C0.1275 5.7225 -2.1825 6.3825 -4.5625 7.0625 C-3.5234375 0.0859375 -3.5234375 0.0859375 0 0 Z " fill="#C8C8C8" transform="translate(62.5625,44.9375)"/>
<path d="M0 0 C0.99 0 1.98 0 3 0 C3.33 1.32 3.66 2.64 4 4 C3.01 4 2.02 4 1 4 C1 4.66 1 5.32 1 6 C0.34 5.67 -0.32 5.34 -1 5 C-0.67 4.34 -0.34 3.68 0 3 C-0.47050781 3.37253906 -0.94101563 3.74507813 -1.42578125 4.12890625 C-2.04839844 4.60199219 -2.67101562 5.07507813 -3.3125 5.5625 C-3.92738281 6.03816406 -4.54226562 6.51382813 -5.17578125 7.00390625 C-5.77777344 7.33261719 -6.37976563 7.66132812 -7 8 C-7.99 7.67 -8.98 7.34 -10 7 C-9.05125 6.38125 -8.1025 5.7625 -7.125 5.125 C-4.05554891 3.18029031 -4.05554891 3.18029031 -2 1 C-1.34 1.33 -0.68 1.66 0 2 C0 1.34 0 0.68 0 0 Z " fill="#7A7A7A" transform="translate(80,118)"/>
<path d="M0 0 C4.02992782 0.55312735 8.02022924 1.1558062 12 2 C10 4 10 4 8.125 4.23046875 C7.073125 4.20919922 7.073125 4.20919922 6 4.1875 C5.29875 4.18105469 4.5975 4.17460938 3.875 4.16796875 C2 4 2 4 0 3 C0 2.01 0 1.02 0 0 Z " fill="#222222" transform="translate(92,118)"/>
<path d="M0 0 C-1.12451727 2.9719385 -2.22293791 5.33440687 -4 8 C-4.66 8 -5.32 8 -6 8 C-6 7.34 -6 6.68 -6 6 C-6.66 5.67 -7.32 5.34 -8 5 C-3.375 0 -3.375 0 0 0 Z " fill="#8C8C8C" transform="translate(117,111)"/>
<path d="M0 0 C0.33 0 0.66 0 1 0 C1 3.3 1 6.6 1 10 C0.01 9.67 -0.98 9.34 -2 9 C-2.33 8.34 -2.66 7.68 -3 7 C-5.01669827 5.86649466 -5.01669827 5.86649466 -7 5 C-6.401875 4.855625 -5.80375 4.71125 -5.1875 4.5625 C-3.43849596 4.1127561 -1.71322977 3.57107659 0 3 C0 2.01 0 1.02 0 0 Z " fill="#BEBEBE" transform="translate(85,97)"/>
<path d="M0 0 C0.99 0.33 1.98 0.66 3 1 C2.375 3.375 2.375 3.375 1 6 C-2.125 7.3125 -2.125 7.3125 -5 8 C-4.34 7.01 -3.68 6.02 -3 5 C-4.32 5.33 -5.64 5.66 -7 6 C-4.82575883 3.49962266 -3.26954202 2.56371414 0 2 C0 1.34 0 0.68 0 0 Z " fill="#595959" transform="translate(57,97)"/>
<path d="M0 0 C1.5625 1.1875 1.5625 1.1875 3 3 C2.88516905 7.36357597 0.93212572 9.89016969 -2 13 C-2.66 13 -3.32 13 -4 13 C-4 12.34 -4 11.68 -4 11 C-3.34 11 -2.68 11 -2 11 C-1.67 9.35 -1.34 7.7 -1 6 C-0.34 6 0.32 6 1 6 C0.67 4.02 0.34 2.04 0 0 Z " fill="#CCCCCC" transform="translate(49,40)"/>
<path d="M0 0 C4.16138263 -0.08159574 7.9472484 0.01751476 12 1 C10.4198632 3.15473199 8.89353366 5.10646634 7 7 C6.938125 6.071875 6.938125 6.071875 6.875 5.125 C6.58625 4.42375 6.2975 3.7225 6 3 C3.00384054 1.6954344 3.00384054 1.6954344 0 1 C0 0.67 0 0.34 0 0 Z " fill="#E0E0E0" transform="translate(88,11)"/>
<path d="M0 0 C2.625 0.9375 2.625 0.9375 5 2 C5 2.66 5 3.32 5 4 C4.01 4 3.02 4 2 4 C2 4.99 2 5.98 2 7 C0.35 7.33 -1.3 7.66 -3 8 C-2.74438677 5.6568787 -2.40729228 3.32156597 -2 1 C-1.34 0.67 -0.68 0.34 0 0 Z " fill="#E9E9E8" transform="translate(87,17)"/>
<path d="M0 0 C1.32 0 2.64 0 4 0 C4.66 0.66 5.32 1.32 6 2 C6.66 1.34 7.32 0.68 8 0 C8.33 0.99 8.66 1.98 9 3 C7.35 4.65 5.7 6.3 4 8 C3.67 6.02 3.34 4.04 3 2 C2.01 1.67 1.02 1.34 0 1 C0 0.67 0 0.34 0 0 Z " fill="#C0C0C0" transform="translate(116,74)"/>
<path d="M0 0 C1.98 0.495 1.98 0.495 4 1 C4.1875 3.875 4.1875 3.875 4 7 C3.01 7.66 2.02 8.32 1 9 C0.34 8.34 -0.32 7.68 -1 7 C-0.34 7 0.32 7 1 7 C0.67 4.69 0.34 2.38 0 0 Z " fill="#A7A7A7" transform="translate(37,41)"/>
<path d="M0 0 C0.66 0.33 1.32 0.66 2 1 C2 1.99 2 2.98 2 4 C2.99 4 3.98 4 5 4 C5.33 5.32 5.66 6.64 6 8 C5.01 8 4.02 8 3 8 C3 7.34 3 6.68 3 6 C1.35 6.33 -0.3 6.66 -2 7 C-1.34 4.69 -0.68 2.38 0 0 Z " fill="#CBCBCB" transform="translate(63,37)"/>
<path d="M0 0 C0.33 0.99 0.66 1.98 1 3 C2.32 2.67 3.64 2.34 5 2 C5 2.66 5 3.32 5 4 C10.445 3.505 10.445 3.505 16 3 C16 3.66 16 4.32 16 5 C10.72 5 5.44 5 0 5 C-0.33 4.01 -0.66 3.02 -1 2 C-0.67 1.34 -0.34 0.68 0 0 Z " fill="#8C8C8C" transform="translate(41,82)"/>
<path d="M0 0 C0.33 1.32 0.66 2.64 1 4 C1.598125 4.12375 2.19625 4.2475 2.8125 4.375 C5 5 5 5 8 7 C8 7.66 8 8.32 8 9 C2.25 8.25 2.25 8.25 0 6 C-0.125 2.875 -0.125 2.875 0 0 Z " fill="#B9B9B9" transform="translate(30,42)"/>
<path d="M0 0 C0.99 1.32 1.98 2.64 3 4 C2.01 4.495 2.01 4.495 1 5 C-0.13350534 7.01669827 -0.13350534 7.01669827 -1 9 C-1.66 9 -2.32 9 -3 9 C-3.33 8.01 -3.66 7.02 -4 6 C-3.34 6 -2.68 6 -2 6 C-2.33 4.35 -2.66 2.7 -3 1 C-2.01 0.67 -1.02 0.34 0 0 Z " fill="#C6C6C6" transform="translate(81,4)"/>
<path d="M0 0 C1.65 0.33 3.3 0.66 5 1 C4.67 2.65 4.34 4.3 4 6 C2.02 6.66 0.04 7.32 -2 8 C-1.01 6.68 -0.02 5.36 1 4 C0.34 4 -0.32 4 -1 4 C-0.67 2.68 -0.34 1.36 0 0 Z " fill="#929292" transform="translate(101,122)"/>
<path d="M0 0 C2.31 0 4.62 0 7 0 C7.66 1.32 8.32 2.64 9 4 C5.37 3.67 1.74 3.34 -2 3 C-1.34 2.67 -0.68 2.34 0 2 C0 1.34 0 0.68 0 0 Z " fill="#7D7D7D" transform="translate(101,117)"/>
<path d="M0 0 C7.42857143 -0.28571429 7.42857143 -0.28571429 11 2 C8.525 3.485 8.525 3.485 6 5 C5.34 4.34 4.68 3.68 4 3 C1.93125966 2.3574765 1.93125966 2.3574765 0 2 C0 1.34 0 0.68 0 0 Z " fill="#929292" transform="translate(70,3)"/>
<path d="M0 0 C0.87398437 0.31904297 0.87398437 0.31904297 1.765625 0.64453125 C1.765625 1.30453125 1.765625 1.96453125 1.765625 2.64453125 C2.425625 2.97453125 3.085625 3.30453125 3.765625 3.64453125 C2.775625 4.13953125 2.775625 4.13953125 1.765625 4.64453125 C1.105625 4.31453125 0.445625 3.98453125 -0.234375 3.64453125 C-0.234375 2.98453125 -0.234375 2.32453125 -0.234375 1.64453125 C-3.204375 3.29453125 -6.174375 4.94453125 -9.234375 6.64453125 C-9.234375 5.98453125 -9.234375 5.32453125 -9.234375 4.64453125 C-7.84375 3.3203125 -7.84375 3.3203125 -5.984375 1.95703125 C-5.38109375 1.49941406 -4.7778125 1.04179688 -4.15625 0.5703125 C-2.234375 -0.35546875 -2.234375 -0.35546875 0 0 Z " fill="#8F8F8F" transform="translate(73.234375,109.35546875)"/>
<path d="M0 0 C0.66 0.33 1.32 0.66 2 1 C1.67 1.99 1.34 2.98 1 4 C1.39397335 6.63804589 1.39397335 6.63804589 2 9 C-2.455 7.02 -2.455 7.02 -7 5 C-7 4.67 -7 4.34 -7 4 C-5.02 4 -3.04 4 -1 4 C-0.67 2.68 -0.34 1.36 0 0 Z " fill="#BBBBBB" transform="translate(109,82)"/>
<path d="M0 0 C2 1 2 1 2.6875 2.75 C3.05449975 5.39239823 2.64331769 7.42672922 2 10 C1.34 10 0.68 10 0 10 C0 8.68 0 7.36 0 6 C-0.66 5.67 -1.32 5.34 -2 5 C-1.34 3.35 -0.68 1.7 0 0 Z " fill="#DBDBDA" transform="translate(50,66)"/>
<path d="M0 0 C3.465 1.98 3.465 1.98 7 4 C6.67 4.99 6.34 5.98 6 7 C1.125 6.125 1.125 6.125 0 5 C-0.04063832 3.33382885 -0.042721 1.66611905 0 0 Z " fill="#5A5A5A" transform="translate(26,49)"/>
<path d="M0 0 C1.485 0.99 1.485 0.99 3 2 C5.32108669 2.70812814 7.65377147 3.38024152 10 4 C9.34 4.66 8.68 5.32 8 6 C6 6 4 6 2 6 C0 3 0 3 0 0 Z " fill="#979797" transform="translate(77,36)"/>
<path d="M0 0 C0.33 0.66 0.66 1.32 1 2 C1.99 2.66 2.98 3.32 4 4 C-0.625 6.125 -0.625 6.125 -4 5 C-4.66 4.34 -5.32 3.68 -6 3 C-4.02 2.01 -2.04 1.02 0 0 Z " fill="#262626" transform="translate(40,103)"/>
<path d="M0 0 C2.125 0.375 2.125 0.375 4 1 C4 1.66 4 2.32 4 3 C4.66 3.33 5.32 3.66 6 4 C3.69 4.66 1.38 5.32 -1 6 C-0.67 5.01 -0.34 4.02 0 3 C-0.66 2.67 -1.32 2.34 -2 2 C-1.34 1.34 -0.68 0.68 0 0 Z " fill="#818181" transform="translate(60,95)"/>
<path d="M0 0 C2.64 0.99 5.28 1.98 8 3 C7.67 4.32 7.34 5.64 7 7 C6.01 7 5.02 7 4 7 C4 6.01 4 5.02 4 4 C2.68 4.33 1.36 4.66 0 5 C0 3.35 0 1.7 0 0 Z " fill="#CFCFCF" transform="translate(73,81)"/>
<path d="M0 0 C-0.99 0 -1.98 0 -3 0 C-3.33 2.31 -3.66 4.62 -4 7 C-4.99 6.67 -5.98 6.34 -7 6 C-7.33 4.02 -7.66 2.04 -8 0 C-4.94736336 -0.98120464 -3.05263664 -0.98120464 0 0 Z " fill="#A6A6A6" transform="translate(73,5)"/>
<path d="M0 0 C0.66 0.33 1.32 0.66 2 1 C2.28571429 8.42857143 2.28571429 8.42857143 0 12 C-0.144375 11.030625 -0.28875 10.06125 -0.4375 9.0625 C-0.67562341 6.13513227 -0.67562341 6.13513227 -2 5 C-2 4.01 -2 3.02 -2 2 C-1.34 2 -0.68 2 0 2 C0 1.34 0 0.68 0 0 Z " fill="#8C8C8C" transform="translate(124,77)"/>
<path d="M0 0 C0.66 0.33 1.32 0.66 2 1 C2.40729228 3.32156597 2.74438677 5.6568787 3 8 C2.01 7.67 1.02 7.34 0 7 C-0.33 7.66 -0.66 8.32 -1 9 C-1 8.34 -1 7.68 -1 7 C-1.99 6.67 -2.98 6.34 -4 6 C-2.68 5.67 -1.36 5.34 0 5 C-0.33 4.34 -0.66 3.68 -1 3 C-0.67 2.01 -0.34 1.02 0 0 Z " fill="#CCCCCC" transform="translate(72,72)"/>
<path d="M0 0 C0.33 0 0.66 0 1 0 C1 4.62 1 9.24 1 14 C-1.97 13.505 -1.97 13.505 -5 13 C-4.360625 12.525625 -3.72125 12.05125 -3.0625 11.5625 C-0.15149728 7.94579965 -0.19350218 4.52795106 0 0 Z " fill="#AAAAAA" transform="translate(72,81)"/>
<path d="M0 0 C0.33 1.32 0.66 2.64 1 4 C0.01 4.66 -0.98 5.32 -2 6 C-2.99 5.67 -3.98 5.34 -5 5 C-4.34 4.67 -3.68 4.34 -3 4 C-3.99 3.34 -4.98 2.68 -6 2 C-3 0 -3 0 0 0 Z " fill="#363636" transform="translate(36,77)"/>
<path d="M0 0 C2.31 0 4.62 0 7 0 C7 0.99 7 1.98 7 3 C4.36 3.33 1.72 3.66 -1 4 C-0.67 2.68 -0.34 1.36 0 0 Z " fill="#F1F1F1" transform="translate(71,60)"/>
<path d="M0 0 C1.32 0.33 2.64 0.66 4 1 C3.67 2.32 3.34 3.64 3 5 C1.68 5 0.36 5 -1 5 C-1 5.66 -1 6.32 -1 7 C-1.66 7 -2.32 7 -3 7 C-2.67 5.68 -2.34 4.36 -2 3 C-1.34 3 -0.68 3 0 3 C0 2.01 0 1.02 0 0 Z " fill="#D2D2D2" transform="translate(63,52)"/>
<path d="M0 0 C0.66 0 1.32 0 2 0 C1.67 2.31 1.34 4.62 1 7 C-0.32 7.33 -1.64 7.66 -3 8 C-1.125 1.125 -1.125 1.125 0 0 Z " fill="#292929" transform="translate(61,35)"/>
<path d="M0 0 C0.556875 0.226875 1.11375 0.45375 1.6875 0.6875 C1.3575 1.3475 1.0275 2.0075 0.6875 2.6875 C-0.3025 2.3575 -1.2925 2.0275 -2.3125 1.6875 C-2.3125 2.6775 -2.3125 3.6675 -2.3125 4.6875 C-3.6325 4.6875 -4.9525 4.6875 -6.3125 4.6875 C-6.6425 5.3475 -6.9725 6.0075 -7.3125 6.6875 C-7.3125 5.3675 -7.3125 4.0475 -7.3125 2.6875 C-4.7516601 0.62460119 -3.3245861 -0.44926839 0 0 Z " fill="#D8D8D8" transform="translate(89.3125,7.3125)"/>
<path d="M0 0 C0.99 0 1.98 0 3 0 C3.66 2.31 4.32 4.62 5 7 C2.37812506 5.95125002 1.20628639 5.35068687 -0.25 2.875 C-0.4975 2.25625 -0.745 1.6375 -1 1 C-0.67 0.67 -0.34 0.34 0 0 Z " fill="#C3C3C3" transform="translate(78,51)"/>
<path d="M0 0 C0.66 0.66 1.32 1.32 2 2 C1.34 4.31 0.68 6.62 0 9 C-0.99 9 -1.98 9 -3 9 C-4.33332095 6.3333581 -3.67102033 4.83319697 -3 2 C-2.34 2 -1.68 2 -1 2 C-0.67 1.34 -0.34 0.68 0 0 Z " fill="#D4D4D4" transform="translate(75,34)"/>
<path d="M0 0 C1.4540625 0.0309375 1.4540625 0.0309375 2.9375 0.0625 C2.9375 0.3925 2.9375 0.7225 2.9375 1.0625 C1.2875 1.0625 -0.3625 1.0625 -2.0625 1.0625 C-2.0625 2.3825 -2.0625 3.7025 -2.0625 5.0625 C-4.3725 5.3925 -6.6825 5.7225 -9.0625 6.0625 C-3.0625 0.0625 -3.0625 0.0625 0 0 Z " fill="#838383" transform="translate(41.0625,27.9375)"/>
<path d="M0 0 C1.32 0.66 2.64 1.32 4 2 C2.9375 3.5 2.9375 3.5 1 5 C-2.6875 5.1875 -2.6875 5.1875 -6 5 C-6 4.01 -6 3.02 -6 2 C-3.03 2.495 -3.03 2.495 0 3 C0 2.01 0 1.02 0 0 Z " fill="#DFDFDF" transform="translate(55,22)"/>
<path d="M0 0 C0.66 0.33 1.32 0.66 2 1 C0.75627811 1.98712878 -0.49527218 2.96439905 -1.75 3.9375 C-2.44609375 4.48277344 -3.1421875 5.02804688 -3.859375 5.58984375 C-5.96092128 6.97425654 -7.54321799 7.56286987 -10 8 C-7.92141021 5.81907964 -5.78143382 4.03609531 -3.3125 2.3125 C-2.68988281 1.87550781 -2.06726563 1.43851562 -1.42578125 0.98828125 C-0.95527344 0.66214844 -0.48476562 0.33601563 0 0 Z " fill="#232323" transform="translate(70,108)"/>
<path d="M0 0 C0.66 0 1.32 0 2 0 C2 1.65 2 3.3 2 5 C2.99 5.33 3.98 5.66 5 6 C4.34 7.32 3.68 8.64 3 10 C3 9.01 3 8.02 3 7 C2.34 7 1.68 7 1 7 C-0.0625 4.625 -0.0625 4.625 -1 2 C-0.67 1.34 -0.34 0.68 0 0 Z " fill="#C9C9C9" transform="translate(65,26)"/>
<path d="M0 0 C0.66 0 1.32 0 2 0 C2 2.64 2 5.28 2 8 C0.68 7.67 -0.64 7.34 -2 7 C-1.34 4.69 -0.68 2.38 0 0 Z " fill="#CECECE" transform="translate(74,24)"/>
<path d="M0 0 C2.0625 0.4375 2.0625 0.4375 4 1 C4 1.99 4 2.98 4 4 C2.68 3.67 1.36 3.34 0 3 C-0.33 3.99 -0.66 4.98 -1 6 C-1.66 5.67 -2.32 5.34 -3 5 C-1.125 1.125 -1.125 1.125 0 0 Z " fill="#797979" transform="translate(47,13)"/>
<path d="M0 0 C-0.99 0.33 -1.98 0.66 -3 1 C-4.20882096 3.00016466 -4.20882096 3.00016466 -5 5 C-7.475 4.01 -7.475 4.01 -10 3 C-9 1 -9 1 -5.5625 -0.1875 C-2 -1 -2 -1 0 0 Z " fill="#969696" transform="translate(65,6)"/>
<path d="M0 0 C0.66 0.33 1.32 0.66 2 1 C1.67 1.99 1.34 2.98 1 4 C1.99 3.67 2.98 3.34 4 3 C3.67 3.99 3.34 4.98 3 6 C0.69 5.34 -1.62 4.68 -4 4 C-3.34 3.67 -2.68 3.34 -2 3 C-1.67 2.34 -1.34 1.68 -1 1 C-0.67 0.67 -0.34 0.34 0 0 Z " fill="#6A6A6A" transform="translate(99,122)"/>
<path d="M0 0 C2.97 0.495 2.97 0.495 6 1 C6 1.66 6 2.32 6 3 C4.88625 3.309375 3.7725 3.61875 2.625 3.9375 C-0.7945155 4.82326483 -0.7945155 4.82326483 -3 6 C-2 4 -1 2 0 0 Z " fill="#ADADAD" transform="translate(65,97)"/>
<path d="M0 0 C0.66 0 1.32 0 2 0 C2.20140476 3.62528568 1.85776765 5.86501708 0 9 C-0.66 9 -1.32 9 -2 9 C-2 8.34 -2 7.68 -2 7 C-2.66 6.67 -3.32 6.34 -4 6 C-2.68 5.67 -1.36 5.34 0 5 C0 3.35 0 1.7 0 0 Z " fill="#959595" transform="translate(122,91)"/>
<path d="M0 0 C1.65 0 3.3 0 5 0 C5 1.32 5 2.64 5 4 C3.68 4.33 2.36 4.66 1 5 C1 4.34 1 3.68 1 3 C0.34 2.67 -0.32 2.34 -1 2 C-0.67 1.34 -0.34 0.68 0 0 Z " fill="#E0E0E0" transform="translate(80,81)"/>
<path d="M0 0 C0.99 0.33 1.98 0.66 3 1 C2.67 1.66 2.34 2.32 2 3 C2.66 3 3.32 3 4 3 C4 3.66 4 4.32 4 5 C2.68 5.33 1.36 5.66 0 6 C-0.66 4.35 -1.32 2.7 -2 1 C-1.34 0.67 -0.68 0.34 0 0 Z " fill="#E6E6E5" transform="translate(104,60)"/>
<path d="M0 0 C0.99 0.66 1.98 1.32 3 2 C2.34 2 1.68 2 1 2 C1 2.99 1 3.98 1 5 C-0.65 5 -2.3 5 -4 5 C-2.25 1.125 -2.25 1.125 0 0 Z " fill="#F8F8F7" transform="translate(71,51)"/>
<path d="M0 0 C0.33 0 0.66 0 1 0 C1.33 2.64 1.66 5.28 2 8 C1.34 8 0.68 8 0 8 C0.33 8.99 0.66 9.98 1 11 C-0.32 10.34 -1.64 9.68 -3 9 C-2.34 8.01 -1.68 7.02 -1 6 C-0.60986284 4.0103005 -0.26797351 2.00980131 0 0 Z " fill="#BFBFBF" transform="translate(45,43)"/>
<path d="M0 0 C1.5 1.1875 1.5 1.1875 3 3 C3.1875 5.6875 3.1875 5.6875 3 8 C2.01 8.495 2.01 8.495 1 9 C1 8.34 1 7.68 1 7 C0.34 6.67 -0.32 6.34 -1 6 C-1.33 5.34 -1.66 4.68 -2 4 C-1.34 4 -0.68 4 0 4 C0 2.68 0 1.36 0 0 Z " fill="#E8E8E8" transform="translate(69,33)"/>
<path d="M0 0 C0.99 0.33 1.98 0.66 3 1 C3 1.66 3 2.32 3 3 C4.32 3.66 5.64 4.32 7 5 C6.01 5.66 5.02 6.32 4 7 C1 5 1 5 0.3125 2.375 C0.209375 1.59125 0.10625 0.8075 0 0 Z " fill="#979797" transform="translate(100,12)"/>
<path d="M0 0 C0 0.99 0 1.98 0 3 C-0.99 3 -1.98 3 -3 3 C-3 4.65 -3 6.3 -3 8 C-3.99 6.68 -4.98 5.36 -6 4 C-4.63772207 1.27544414 -3.11734545 0 0 0 Z " fill="#CBCBCB" transform="translate(66,6)"/>
<path d="M0 0 C0.99 0.33 1.98 0.66 3 1 C3 1.66 3 2.32 3 3 C3.99 2.67 4.98 2.34 6 2 C6 2.66 6 3.32 6 4 C5.01 4.33 4.02 4.66 3 5 C2.67 5.66 2.34 6.32 2 7 C1.34 7 0.68 7 0 7 C0 4.66666667 0 2.33333333 0 0 Z " fill="#A8A8A8" transform="translate(75,109)"/>
<path d="M0 0 C-2.1875 2.0625 -2.1875 2.0625 -5 4 C-7.8125 3.75 -7.8125 3.75 -10 3 C-7.28464405 0.28464405 -3.67870689 -1.83935344 0 0 Z " fill="#303030" transform="translate(63,108)"/>
<path d="M0 0 C0.66 1.32 1.32 2.64 2 4 C2.66 4 3.32 4 4 4 C3.67 4.66 3.34 5.32 3 6 C2.01 6 1.02 6 0 6 C0 6.66 0 7.32 0 8 C-0.66 8 -1.32 8 -2 8 C-1.47731534 5.23723823 -0.89130413 2.6739124 0 0 Z " fill="#CDCDCD" transform="translate(75,100)"/>
<path d="M0 0 C2.475 0.99 2.475 0.99 5 2 C4.625 3.9375 4.625 3.9375 4 6 C3.01 6.495 3.01 6.495 2 7 C1.34 4.69 0.68 2.38 0 0 Z " fill="#9E9E9E" transform="translate(115,98)"/>
<path d="M0 0 C1.65 0 3.3 0 5 0 C4.34 1.65 3.68 3.3 3 5 C1.68 4.34 0.36 3.68 -1 3 C-0.67 2.01 -0.34 1.02 0 0 Z " fill="#DDDDDD" transform="translate(84,69)"/>
<path d="M0 0 C0.99 0.33 1.98 0.66 3 1 C2.67 1.99 2.34 2.98 2 4 C2.66 4 3.32 4 4 4 C4.33 4.99 4.66 5.98 5 7 C3.35 6.67 1.7 6.34 0 6 C0 4.02 0 2.04 0 0 Z " fill="#B5B5B5" transform="translate(66,62)"/>
<path d="M0 0 C0.99 0.33 1.98 0.66 3 1 C3 2.32 3 3.64 3 5 C3.66 5.33 4.32 5.66 5 6 C3.35 6 1.7 6 0 6 C-1.24546405 3.50907189 -0.7767578 2.58919267 0 0 Z " fill="#E5E5E5" transform="translate(82,59)"/>
<path d="M0 0 C2.475 0.495 2.475 0.495 5 1 C4.67 2.32 4.34 3.64 4 5 C2.68 5.33 1.36 5.66 0 6 C0.66 5.01 1.32 4.02 2 3 C1.34 2.67 0.68 2.34 0 2 C0 1.34 0 0.68 0 0 Z " fill="#9D9D9D" transform="translate(114,57)"/>
<path d="M0 0 C1.2065625 0.0309375 1.2065625 0.0309375 2.4375 0.0625 C0.4375 2.0625 0.4375 2.0625 -1.5625 3.0625 C-1.5625 4.0525 -1.5625 5.0425 -1.5625 6.0625 C-2.5525 6.0625 -3.5425 6.0625 -4.5625 6.0625 C-3.48963568 0.08511307 -3.48963568 0.08511307 0 0 Z " fill="#E9E9E8" transform="translate(80.5625,14.9375)"/>
<path d="M0 0 C0 0.66 0 1.32 0 2 C-0.99 2 -1.98 2 -3 2 C-3 2.66 -3 3.32 -3 4 C-4.32 3.67 -5.64 3.34 -7 3 C-7 2.34 -7 1.68 -7 1 C-4.53721199 -0.231394 -2.7204945 -0.07159196 0 0 Z " fill="#A8A8A8" transform="translate(83,116)"/>
<path d="M0 0 C2 3 2 3 2 5 C2.66 5 3.32 5 4 5 C4 5.66 4 6.32 4 7 C2.35 6.67 0.7 6.34 -1 6 C-1.625 4.125 -1.625 4.125 -2 2 C-1.34 1.34 -0.68 0.68 0 0 Z " fill="#E0E0E0" transform="translate(63,77)"/>
<path d="M0 0 C1.32 0.33 2.64 0.66 4 1 C4 1.99 4 2.98 4 4 C5.32 4.33 6.64 4.66 8 5 C6.35 5.33 4.7 5.66 3 6 C3 5.34 3 4.68 3 4 C2.34 4 1.68 4 1 4 C0.67 2.68 0.34 1.36 0 0 Z " fill="#B6B6B6" transform="translate(105,59)"/>
<path d="M0 0 C1.670625 0.061875 1.670625 0.061875 3.375 0.125 C3.045 1.115 2.715 2.105 2.375 3.125 C-0.265 2.795 -2.905 2.465 -5.625 2.125 C-3.625 0.125 -3.625 0.125 0 0 Z " fill="#B9B9B9" transform="translate(109.625,47.875)"/>
<path d="M0 0 C0.66 0.33 1.32 0.66 2 1 C0.68 3.64 -0.64 6.28 -2 9 C-2.66 9 -3.32 9 -4 9 C-4.33 8.01 -4.66 7.02 -5 6 C-4.01 5.67 -3.02 5.34 -2 5 C-0.78130071 2.49552484 -0.78130071 2.49552484 0 0 Z " fill="#8D8D8D" transform="translate(59,35)"/>
<path d="M0 0 C2.97 0 5.94 0 9 0 C9.33 0.66 9.66 1.32 10 2 C5.545 2.495 5.545 2.495 1 3 C0.67 2.01 0.34 1.02 0 0 Z " fill="#5F5F5F" transform="translate(107,34)"/>
<path d="M0 0 C1.5625 1.6875 1.5625 1.6875 3 4 C2.6875 6.75 2.6875 6.75 2 9 C1.01 8.67 0.02 8.34 -1 8 C-0.67 5.36 -0.34 2.72 0 0 Z " fill="#E4E4E4" transform="translate(64,29)"/>
<path d="M0 0 C1.65 0 3.3 0 5 0 C5 0.99 5 1.98 5 3 C4.34 3 3.68 3 3 3 C2.67 3.66 2.34 4.32 2 5 C1.34 5 0.68 5 0 5 C-0.33 5.66 -0.66 6.32 -1 7 C-1 6.01 -1 5.02 -1 4 C-0.34 4 0.32 4 1 4 C0.67 2.68 0.34 1.36 0 0 Z " fill="#D4D4D4" transform="translate(105,22)"/>
<path d="M0 0 C1.65 0 3.3 0 5 0 C4.67 0.99 4.34 1.98 4 3 C3.01 3 2.02 3 1 3 C1 3.66 1 4.32 1 5 C0.34 5 -0.32 5 -1 5 C-1.33 4.01 -1.66 3.02 -2 2 C-1.34 2 -0.68 2 0 2 C0 1.34 0 0.68 0 0 Z " fill="#A5A5A5" transform="translate(52,16)"/>
<path d="M0 0 C0.99 0.66 1.98 1.32 3 2 C2.01 2.33 1.02 2.66 0 3 C0 3.66 0 4.32 0 5 C-1.32 4.34 -2.64 3.68 -4 3 C-2.68 2.01 -1.36 1.02 0 0 Z " fill="#656565" transform="translate(122,65)"/>
<path d="M0 0 C0.33 0.66 0.66 1.32 1 2 C1.99 1.34 2.98 0.68 4 0 C4.99 0.33 5.98 0.66 7 1 C3.93882432 3.62386487 3.26826873 4 -1 4 C-0.67 2.68 -0.34 1.36 0 0 Z " fill="#DEDEDE" transform="translate(80,66)"/>
<path d="M0 0 C1.65 0 3.3 0 5 0 C4.67 1.65 4.34 3.3 4 5 C3.01 4.67 2.02 4.34 1 4 C0.3125 1.9375 0.3125 1.9375 0 0 Z " fill="#E4E4E4" transform="translate(44,39)"/>
<path d="M0 0 C0.99 0.33 1.98 0.66 3 1 C4.1875 3.5625 4.1875 3.5625 5 6 C4.01 6.33 3.02 6.66 2 7 C1.34 4.69 0.68 2.38 0 0 Z " fill="#CACACA" transform="translate(58,28)"/>
<path d="M0 0 C1.65 0 3.3 0 5 0 C5 0.99 5 1.98 5 3 C3.02 3 1.04 3 -1 3 C-0.67 2.01 -0.34 1.02 0 0 Z " fill="#D8D8D8" transform="translate(39,29)"/>
</svg>
